<svg xmlns="http://www.w3.org/2000/svg" width="184.671" height="66.203" viewBox="0 0 184.671 66.203"><g transform="matrix(0.809, -0.588, 0.588, 0.809, -667.014, 25.927)"><g transform="matrix(0.799, 0.602, -0.602, 0.799, 556.496, 370.141)"><g transform="translate(63.309 53.539)"><path d="M8.174,6.4h0v5.149h0v.736H6.811v-.354l-.027-.327V11.58L6.757,6.4h0a3.9,3.9,0,0,0-.191-1.172A3.274,3.274,0,0,0,5.994,4.3a2.458,2.458,0,0,0-.872-.627A2.608,2.608,0,0,0,4.087,3.46h0a2.594,2.594,0,0,0-1.035.191,2.722,2.722,0,0,0-.872.627,2.872,2.872,0,0,0-.572.954A3.21,3.21,0,0,0,1.417,6.4v5.858H0V0H1.417V3.161a4.378,4.378,0,0,1,.763-.6,4.241,4.241,0,0,1,.9-.381,4.054,4.054,0,0,1,.981-.136,3.691,3.691,0,0,1,1.553.327,4.121,4.121,0,0,1,1.335.981,5.191,5.191,0,0,1,.9,1.417A3.151,3.151,0,0,1,8.174,6.4Z" transform="translate(49.381 0)" fill="#b89c7d"/><path d="M3.542,3.433H1.39V9.318h0a2.087,2.087,0,0,0,.109.736.967.967,0,0,0,.3.436,1.44,1.44,0,0,0,.545.245,2.828,2.828,0,0,0,.872.109h.708v1.417H3.215a3.829,3.829,0,0,1-1.281-.191A2.967,2.967,0,0,1,.9,11.5a2.5,2.5,0,0,1-.654-.954A4.081,4.081,0,0,1,0,9.318H0V0H1.417V2.016H3.924V3.433Z" transform="translate(40.881 0.027)" fill="#b89c7d"/><path d="M1.39.409V1.526l.164-.163A5.663,5.663,0,0,1,2.67.627,6.754,6.754,0,0,1,3.978.163,6.342,6.342,0,0,1,5.422,0H6.13V1.417H5.422a5.2,5.2,0,0,0-1.662.245,3.339,3.339,0,0,0-1.253.708,3.292,3.292,0,0,0-.817,1.117,4.515,4.515,0,0,0-.273,1.553h0v5.2H0V.027H1.39V.409Z" transform="translate(30.118 2.016)" fill="#b89c7d"/><path d="M5.149,8.637A3.658,3.658,0,0,1,4.2,8.528,3.889,3.889,0,0,1,2.97,7.956a2.735,2.735,0,0,1-.6-.518c-.109-.136-.164-.191-.3-.381a.273.273,0,0,0-.109-.136.6.6,0,0,0-.082-.136c-.027-.027-.027-.027-.027-.082a3.725,3.725,0,0,1-.109-3.351,3.055,3.055,0,0,1,.327-.572l.245-.327L2.37,2.4l.109-.109a4.191,4.191,0,0,1,.817-.6l.245-.109a3.6,3.6,0,0,1,2.452-.245,3.021,3.021,0,0,1,.817.327l.409.245a3.721,3.721,0,0,1,.6.518l.245.327A3.614,3.614,0,0,1,8.746,4.5l.027.436V5.15a2.126,2.126,0,0,1-.109.6,1.774,1.774,0,0,1-.109.354,2.822,2.822,0,0,1-.463.9.272.272,0,0,1-.109.136c-.027.027-.054.082-.109.109l-.381.409a1.694,1.694,0,0,1-.327.245A3.162,3.162,0,0,1,5.149,8.637ZM0,4.877A4.753,4.753,0,0,0,.381,6.839l.191.436a3.66,3.66,0,0,0,.49.763l.436.518c.027.027.055.027.082.055l.436.354a5.062,5.062,0,0,0,.954.6,5.625,5.625,0,0,0,.953.327c.164.027.327.082.545.109a5.443,5.443,0,0,0,2.1-.163l.463-.163a3.38,3.38,0,0,0,.817-.436l.463-.354.054-.055L8.91,8.31l.054-.054c.163-.191.191-.245.354-.463.027-.027.054-.109.082-.136v2.561h1.362V0H9.4V2.425l-.545-.708L8.664,1.5A4.24,4.24,0,0,0,7.711.763,4.143,4.143,0,0,0,6.539.245,5.042,5.042,0,0,0,3.433.272a4.967,4.967,0,0,0-.872.381,1.938,1.938,0,0,0-.463.3,3.075,3.075,0,0,0-.354.272L1.5,1.471c-.054.027-.082.109-.136.163A4.987,4.987,0,0,0,.49,2.943c-.109.272-.245.654-.327.926A2.6,2.6,0,0,0,0,4.877Z" transform="translate(14.343 2.152)" fill="#b89c7d" fill-rule="evenodd"/><path d="M4.861,1.363h.3a3.786,3.786,0,0,1,1.853.545,4.266,4.266,0,0,1,.572.463,1.087,1.087,0,0,1,.109.082,4.736,4.736,0,0,1,.463.572l.218.381a1.006,1.006,0,0,1,.136.3,3.843,3.843,0,0,1,.163.6H1.455a2.544,2.544,0,0,1,.191-.6,3.623,3.623,0,0,1,.681-1.117l.409-.381c.027-.027.082-.055.109-.082A4.013,4.013,0,0,1,3.58,1.69a2.251,2.251,0,0,1,.6-.218A2.374,2.374,0,0,1,4.861,1.363ZM9.684,7.085H8.131a2.379,2.379,0,0,1-.245.3,2.32,2.32,0,0,1-.436.463,4.67,4.67,0,0,1-.381.3,4.216,4.216,0,0,1-.6.327l-.381.136a3.625,3.625,0,0,1-2.152-.027.674.674,0,0,1-.245-.109,5.49,5.49,0,0,1-.681-.381,3.1,3.1,0,0,1-.817-.763,3.585,3.585,0,0,1-.708-1.444c0-.054-.027-.109-.027-.163h8.637a3.66,3.66,0,0,1,.027-.545,4.9,4.9,0,0,0-.082-1.09A3.3,3.3,0,0,0,9.9,3.6c-.027-.109-.109-.327-.136-.436a.817.817,0,0,0-.109-.218,4.921,4.921,0,0,0-.572-.954c-.109-.109-.191-.245-.272-.327l-.327-.3c-.027-.027-.027-.055-.055-.082A4.863,4.863,0,0,0,7.45.6,1.882,1.882,0,0,0,7.041.41L6.6.246A3.3,3.3,0,0,0,6.114.11,4.785,4.785,0,0,0,3.962.137,4.967,4.967,0,0,0,1.673,1.309a1.678,1.678,0,0,0-.381.381c-.082.109-.191.218-.273.327a5.389,5.389,0,0,0-.926,2.1C.066,4.2.066,4.278.038,4.36V4.5c-.027.027-.027.109-.027.136A8.529,8.529,0,0,0,.038,5.8a3.176,3.176,0,0,0,.109.49A4.874,4.874,0,0,0,.5,7.167a4.112,4.112,0,0,0,.245.49,4.081,4.081,0,0,0,.463.627l.3.3.218.245c.136.109.245.191.409.327a4.475,4.475,0,0,0,.79.436,4.777,4.777,0,0,0,.872.327c.163.027.327.082.49.109a4.4,4.4,0,0,0,.845.054,1.222,1.222,0,0,0,.3-.027l.245-.027A1.021,1.021,0,0,1,5.951,10,6.264,6.264,0,0,0,6.9,9.728,4.994,4.994,0,0,0,8.24,8.965a4.91,4.91,0,0,0,.545-.518,5.577,5.577,0,0,0,.681-.954c.027-.027.027-.054.054-.109l.109-.218A.211.211,0,0,1,9.684,7.085Z" transform="translate(0 2.07)" fill="#b89c7d" fill-rule="evenodd"/></g><g transform="translate(0 0)"><path d="M0,31.039H3.133V13.248a20.865,20.865,0,0,1,.027-2.261,9.912,9.912,0,0,1,.954-3.433A9.24,9.24,0,0,1,6.021,4.992,6.67,6.67,0,0,1,10.79,3.167a7.466,7.466,0,0,1,1.989.272,6.111,6.111,0,0,1,1.553.681,7.481,7.481,0,0,1,2.316,2.125c1.553,2.016,1.744,4.577,1.744,7.139,0,2.915.082,5.831.082,8.8v8.882h3.161V17.689c0-2.534-.245-6.185.354-8.474a9.583,9.583,0,0,1,1.444-3,7.1,7.1,0,0,1,1.689-1.689,7.2,7.2,0,0,1,7.656-.436A7.923,7.923,0,0,1,35.12,6.218c.164.245.273.381.463.654a11.634,11.634,0,0,1,1.362,6.43c-.027,5.912.027,11.8.027,17.737h3.215c0-4.768-.027-9.454-.027-14.223A52.447,52.447,0,0,0,39.97,9.9a11.839,11.839,0,0,0-.763-2.806,11.57,11.57,0,0,0-1.253-2.261c-.136-.191-.245-.381-.381-.545l-.817-.954a3.086,3.086,0,0,0-.708-.681l-1.226-.981c-.163-.109-.381-.245-.518-.327A9.872,9.872,0,0,0,25.639.714a6.9,6.9,0,0,0-1.2.572l-1.063.681c-.163.136-.354.272-.518.409s-.327.272-.463.409c-.3.327-.545.545-.872.9-.163.191-.245.327-.381.49-.381.436-.953,1.39-1.09,1.526a5.1,5.1,0,0,1-.327-.49l-.681-.954A9.821,9.821,0,0,0,17.9,2.949a7.875,7.875,0,0,0-.845-.763L16.1,1.5A10.069,10.069,0,0,0,7.52.551,10.838,10.838,0,0,0,3.978,2.7c-.272.218-.545.6-.817.817V.033C2.97.006.3.006.027.061L0,31.039Z" transform="translate(44.302 12.718)" fill="#b89c7d" fill-rule="evenodd"/><path d="M14.876,3.133a12.432,12.432,0,0,1,2.861.191A12.562,12.562,0,0,1,22.178,5.1c.436.327.381.245.9.654a12.2,12.2,0,0,1,1.989,1.934,12.992,12.992,0,0,1,1.5,2.343,12.473,12.473,0,0,1,.409,10.163,13.271,13.271,0,0,1-1.362,2.534c-.136.163-.218.327-.327.463a13.2,13.2,0,0,1-4.25,3.488A12.615,12.615,0,0,1,16.1,27.982c-.272,0-.463.027-.763.027a13.7,13.7,0,0,1-2.125-.191,12.4,12.4,0,0,1-5.8-2.779c-.082-.055-.109-.109-.191-.163a12.993,12.993,0,0,1-1.689-1.8L4.9,22.124a8.343,8.343,0,0,1-.545-.981,13.56,13.56,0,0,1-.845-2.234A12.38,12.38,0,0,1,5.368,8.365c.109-.136.191-.272.327-.436a7.112,7.112,0,0,1,.736-.817,10.458,10.458,0,0,1,.763-.79,12.689,12.689,0,0,1,6.975-3.079A2.759,2.759,0,0,1,14.876,3.133Zm-.163,27.9H16.1c.027-.027.954-.082,1.117-.109a15.272,15.272,0,0,0,6.948-2.588c.436-.3,1.444-1.09,1.771-1.39.3-.3,1.063-1.035,1.253-1.308l1.662-2.152.027,7.52H31.96V0H28.881l-.027,7.6c-.136-.163-.163-.245-.272-.381l-.817-1.09a4.622,4.622,0,0,1-.273-.381l-.6-.654a4.027,4.027,0,0,0-.273-.354,1.223,1.223,0,0,0-.354-.3,3.685,3.685,0,0,1-.327-.327,14.571,14.571,0,0,0-2.18-1.689A14.957,14.957,0,0,0,16.484.054c-.218-.027-.409,0-.627-.027A14.657,14.657,0,0,0,11.28.6,15.108,15.108,0,0,0,6.512,2.888a9.815,9.815,0,0,0-1.09.845A9.044,9.044,0,0,0,3.978,5.177l-.463.518a12.1,12.1,0,0,0-1.09,1.471A15.176,15.176,0,0,0,.763,10.653,14.6,14.6,0,0,0,0,16.239,16.864,16.864,0,0,0,.518,19.59a14.432,14.432,0,0,0,2.016,4.468l.545.736a17.564,17.564,0,0,0,2.152,2.343.9.9,0,0,1,.163.163,17.742,17.742,0,0,0,3.3,2.18q.9.409,1.8.736a15.355,15.355,0,0,0,3.133.708C13.787,30.952,14.631,30.979,14.713,31.033Z" transform="translate(94.681 12.724)" fill="#b89c7d" fill-rule="evenodd"/><path d="M3.058,15.1a14.359,14.359,0,0,1,.382-2.643A12.885,12.885,0,0,1,4.747,9.294a3.419,3.419,0,0,1,.3-.463c.109-.163.191-.245.3-.436a12.835,12.835,0,0,1,3.9-3.569A11.916,11.916,0,0,1,12.4,3.518a12.436,12.436,0,0,1,3.733-.381A12.727,12.727,0,0,1,20.9,4.363a11.411,11.411,0,0,1,1.88,1.117l.6.49a7.409,7.409,0,0,1,.954.872,7.8,7.8,0,0,1,.736.817A5.619,5.619,0,0,1,25.7,8.5a13.234,13.234,0,0,1,1.09,1.907c.164.354.3.654.436,1.035a12.458,12.458,0,0,1,.327,7.193,14.513,14.513,0,0,1-.817,2.234,10.924,10.924,0,0,1-2.561,3.542,12.354,12.354,0,0,1-13.732,2.452,11.314,11.314,0,0,1-2.806-1.744,9.232,9.232,0,0,1-1.39-1.335,12.906,12.906,0,0,1-1.144-1.5,10.493,10.493,0,0,1-.817-1.444A11.961,11.961,0,0,1,3.058,15.1ZM14.719,31.064h1.526a10.329,10.329,0,0,1,1.117-.109,14.8,14.8,0,0,0,3.079-.681,15.755,15.755,0,0,0,5.177-2.943L26.9,26.078c.082-.109.055-.109.136-.191l.164-.163,1.09-1.39a5.558,5.558,0,0,1,.572-.763l.027,7.493h3.079V.058c-.926,0-2.18-.109-3.079-.027L28.86,7.55l-.817-1.117a18.112,18.112,0,0,0-2.806-2.97,16.568,16.568,0,0,0-5.013-2.7A15.789,15.789,0,0,0,11.232.657a15.521,15.521,0,0,0-3.6,1.526c-.163.109-.245.136-.381.245a1.933,1.933,0,0,1-.381.272l-.735.545L4.12,5.071l-1.444,1.8A15.749,15.749,0,0,0,.115,17.55a15.278,15.278,0,0,0,2.67,6.921.676.676,0,0,1,.109.191,18.429,18.429,0,0,0,2.643,2.806l.381.3a14.544,14.544,0,0,0,2.725,1.744c.6.272,1.172.518,1.8.736a15.779,15.779,0,0,0,3.133.708c.191.027.382.027.6.054A2.586,2.586,0,0,1,14.719,31.064Z" transform="translate(152.191 12.694)" fill="#b89c7d" fill-rule="evenodd"/><path d="M3.106,15.106A12.683,12.683,0,0,1,4.8,9.33a1.943,1.943,0,0,1,.3-.463A8.58,8.58,0,0,1,6.4,7.2a1.262,1.262,0,0,1,.191-.191c.245-.245-.027-.027.381-.381a1.256,1.256,0,0,0,.191-.191,12.575,12.575,0,0,1,3.106-2.125A12.885,12.885,0,0,1,13.7,3.281a12.07,12.07,0,0,1,3.705,0,11.861,11.861,0,0,1,4.468,1.58c.79.463,1.226.9,1.744,1.253a9.039,9.039,0,0,1,.763.708,10.064,10.064,0,0,1,1.362,1.662,12.343,12.343,0,0,1,2.207,7.465,12.628,12.628,0,0,1-1.2,4.932,13.287,13.287,0,0,1-1.117,1.934,4.533,4.533,0,0,0-.327.436,15.448,15.448,0,0,1-2.1,2.125l-.654.463a11.351,11.351,0,0,1-1.962,1.09,12.6,12.6,0,0,1-10.081.027c-.381-.163-.654-.327-1.035-.518a13.179,13.179,0,0,1-2.234-1.58,2.53,2.53,0,0,1-.381-.381,10.352,10.352,0,0,1-1.09-1.2A12.143,12.143,0,0,1,4.3,20.937,14.5,14.5,0,0,1,3.487,18.7,11.738,11.738,0,0,1,3.106,15.106ZM0,14.507v2.071c.027.027.191,1.444.218,1.608a17.74,17.74,0,0,0,.763,2.861A14.8,14.8,0,0,0,3.3,25.133c.163.191.245.327.381.49a18.148,18.148,0,0,0,2.1,2.016c.354.245.926.736,1.308.954a14.1,14.1,0,0,0,3,1.526,14.771,14.771,0,0,0,2.861.763l1.608.191h1.88a6.709,6.709,0,0,1,1.09-.109A16.423,16.423,0,0,0,24.631,28.1a2.762,2.762,0,0,1,.354-.245,14.484,14.484,0,0,0,1.662-1.5,1.467,1.467,0,0,0,.245-.327A5.561,5.561,0,0,0,27.764,25c.027-.027,1.008-1.39,1.09-1.444v7.52h3.079V.012H28.854l-.027,7.574c-.136-.163-.191-.3-.327-.463a16.118,16.118,0,0,0-2.561-3A12.921,12.921,0,0,0,24.6,3.036l-.954-.654a5.133,5.133,0,0,0-.49-.327A15.9,15.9,0,0,0,17.192.093,15.585,15.585,0,0,0,5.64,3.5c-.6.545-.6.49-1.253,1.144A16.724,16.724,0,0,0,2.915,6.333,18.557,18.557,0,0,0,1.689,8.322,16.1,16.1,0,0,0,.109,13.09,6.792,6.792,0,0,1,0,14.507Z" transform="translate(0 12.685)" fill="#b89c7d" fill-rule="evenodd"/><path d="M.027,43.757H3.106V10.871C3.106,7.22,3.133,3.6,3.133,0H0V43.757Z" transform="translate(138.874 0)" fill="#b89c7d" fill-rule="evenodd"/><path d="M23.84,0H0V3.052H23.84Z" transform="translate(98.713 0)" fill="#b89c7d" fill-rule="evenodd"/></g></g></g></svg>