<svg xmlns="http://www.w3.org/2000/svg" width="301.781" height="65.947" viewBox="0 0 301.781 65.947"><g transform="translate(-26 126.162)"><path d="M26-125.645a8.275,8.275,0,0,0,1.2,2.279c1.5,2.279,1.5,2.7,0,2.7-1.679,0-1.5,1.679.42,3.718,1.559,1.619,1.559,1.739.48,2.519-1.02.78-1.02.84.66,1.679,1.08.48,1.679,1.2,1.559,1.859a1.348,1.348,0,0,0,.9,1.439c1.859.72,5.937,5.158,7.677,8.276.9,1.619,2.819,5.158,4.258,7.856L45.791-88.4l-2.4.96c-1.319.54-2.4,1.2-2.4,1.5s2.339,1.8,5.278,3.239c3.958,2.1,5.158,3,5.038,3.838a90.908,90.908,0,0,1-4.378,9.656c-2.339,4.738-4.078,8.756-3.9,8.936.48.54,4.558-2.759,4.558-3.718,0-1.02,6.6-8.876,7.077-8.4.18.18-.3,1.139-1.02,2.159-1.439,1.919-1.379,3,0,1.619,1.919-1.8,8.156-6.477,8.7-6.477,1.08,0,3.059-2.639,4.138-5.577,1.139-2.939.9-4.078-.48-2.939-.66.54-1.2.3-2.519-1.08a7.05,7.05,0,0,0-3.958-2.159c-2.039-.36-2.219-.48-1.619-1.739.48-1.02.06-2.819-1.859-8.456-4.918-14.454-5.218-15.053-10.735-20.391-5.4-5.158-16.133-11.575-12.354-7.377l1.139,1.319-2.519-1.319C29.119-126.065,26-126.485,26-125.645Z" transform="translate(0)"/><path d="M100.934-119.141a6.857,6.857,0,0,0-1.559,2.7c0,.54-.24.72-.6.54a2.257,2.257,0,0,1-.6-1.619c0-1.2-.06-1.259-1.2-.18a3.463,3.463,0,0,0-1.2,1.919c0,.6-.36.72-1.139.48-.9-.3-1.319.06-1.919,1.8-.42,1.139-1.08,2.1-1.5,2.1-.36,0-.84,1.259-1.08,2.819-.18,1.619-1.859,5.817-3.778,9.656-3.239,6.417-3.358,6.9-2.339,7.617.9.66,1.559.66,3.838-.06,5.1-1.559,6.177-1.679,5.757-.66-.3.84-.12.84,1.439.3,2.039-.78,1.979-2.279-.06-2.279-1.139,0-1.02-.24.9-2.279,3.778-4.018,7.677-10.675,7.677-13.194a8.627,8.627,0,0,1,.54-2.639c.24-.78.66-2.459.9-3.718.42-2.1.36-2.279-.42-1.619a4.5,4.5,0,0,0-1.259,2.159c-.24.84-.66,1.5-.96,1.5-.72,0-.78-.36-.06-1.679.84-1.679,1.379-5.518.72-5.518A6.016,6.016,0,0,0,100.934-119.141Z" transform="translate(-22.997 -2.066)"/><g transform="translate(-1 -0.74)"><path d="M501.862-84.637c-8.327,5.1-5.1,17.46,4.5,17.46a8.159,8.159,0,0,0,8.126-6.178c.94-3.425.4-4.029-3.761-3.761-2.753.2-3.291.4-3.291,1.545,0,1.007.537,1.41,2.283,1.679l2.283.336-1.612,1.813c-2.35,2.619-4.5,2.955-7.32,1.074a6.845,6.845,0,0,1-.873-11.013,6.554,6.554,0,0,1,8.26-.269c1.545,1.142,2.014,1.209,2.619.4.6-.739.537-1.209-.336-2.082A9.266,9.266,0,0,0,501.862-84.637Z" transform="translate(-212.215 -15.56)" stroke="#000" stroke-width="0.5"/><g transform="translate(96.5 -101.848)"><path d="M288.47-85.6c-.269.269-.47,4.5-.47,9.469,0,8.528.067,8.931,1.343,8.931,1.343,0,1.343-.336,1.209-9.2C290.35-84.927,289.88-87.009,288.47-85.6Z" transform="translate(-214.099 86.004)" stroke="#000" stroke-width="0.5"/><path d="M310.77-85.294a10.075,10.075,0,0,0-5.506,7.521c-.672,6.044,3.223,10.61,9,10.61,3.761,0,4.9-.537,4.9-2.418,0-1.477-.067-1.545-2.35-.537a4.742,4.742,0,0,1-4.634,0c-4.1-1.679-5.574-5.708-3.492-9.67,1.679-3.29,5.238-4.231,9.334-2.485.873.4,1.142.134,1.142-1.209a1.927,1.927,0,0,0-1.477-2.082A13.23,13.23,0,0,0,310.77-85.294Z" transform="translate(-224.568 86.553)" stroke="#000" stroke-width="0.5"/><path d="M375-76.27c0,8.931.067,9.4,1.343,9.4,1.209,0,1.343-.47,1.343-5.641,0-3.156.269-5.842.537-6.044.336-.2,3.29,2.35,6.581,5.708a54.83,54.83,0,0,0,6.447,5.977c.336,0,.537-4.1.537-9.066,0-8.6-.067-9.066-1.343-9.066-1.209,0-1.343.47-1.343,5.708,0,3.156-.2,5.708-.537,5.708a47.829,47.829,0,0,1-5.842-5.439C374.527-87.283,375-87.418,375-76.27Z" transform="translate(-255.182 85.6)" stroke="#000" stroke-width="0.5"/><path d="M157.782-83.829C156.1-80.673,151-68.586,151-67.78c0,1.88,2.485.94,3.425-1.276,1.142-2.753,1.679-3.156,4.969-3.156s3.895.4,5.1,3.156c.537,1.276,1.41,2.216,2.082,2.216,2.015,0,2.015-.2-4.566-14.639C160.4-85.038,158.924-85.844,157.782-83.829Zm3.559,7.387c.47,1.41.269,1.545-1.88,1.545a5.913,5.913,0,0,1-2.418-.269,25.639,25.639,0,0,1,1.074-2.753c.94-2.35,1.074-2.418,1.88-1.276A14.9,14.9,0,0,1,161.342-76.443Z" transform="translate(-151 85.571)" stroke="#000" stroke-width="0.5"/><path d="M190.022-84.194C189.552-82.583,187-68.95,187-67.943a1.138,1.138,0,0,0,1.209,1.074c1.007,0,1.41-.873,2.082-4.5a35.545,35.545,0,0,1,1.209-5.1c.336-.6,4.231,6.984,4.231,8.26A1.264,1.264,0,0,0,196.4-67.2c.336.2,1.746-1.947,3.089-4.835,1.41-2.888,2.619-4.768,2.753-4.231s.6,2.82,1.074,5.036c.6,2.888,1.142,4.1,2.015,4.231,1.41.269,1.477-1.007.2-7.857-.537-2.82-1.209-6.245-1.41-7.655-.2-1.343-.672-2.485-.94-2.485-.336,0-1.746,2.552-3.156,5.708-1.477,3.156-2.888,5.574-3.29,5.507-.336-.134-1.679-2.686-3.022-5.708C191.432-84.8,190.626-85.873,190.022-84.194Z" transform="translate(-165.725 85.6)" stroke="#000" stroke-width="0.5"/><path d="M229-75.934v9.066h5.036c4.566,0,5.036-.134,5.036-1.276s-.537-1.343-3.492-1.545l-3.559-.2v-5.372l3.559-.2c2.888-.2,3.492-.4,3.492-1.477s-.6-1.276-3.492-1.477c-3.425-.2-3.559-.269-3.559-2.216s.134-2.015,3.559-2.216c2.485-.134,3.492-.47,3.492-1.209S238-85,234.036-85H229Z" transform="translate(-184.211 85.6)" stroke="#000" stroke-width="0.5"/><path d="M258-75.867c0,8.327.134,9.066,1.209,8.864.873-.134,1.209-1.074,1.477-3.895l.336-3.693,2.888,3.828c1.813,2.485,3.358,3.895,4.163,3.895,1.746,0,1.746-.134-1.074-4.029l-2.417-3.358,1.746-2.082C270.02-80.7,267.6-85,261.492-85H258Zm5.708-6.312c3.022,1.343,1.612,5.238-1.947,5.238-.806,0-1.074-.739-1.074-3.022C260.686-83.187,261.022-83.455,263.708-82.18Z" transform="translate(-199.775 85.813)" stroke="#000" stroke-width="0.5"/><path d="M343.628-81.163c-.94,2.149-2.35,5.372-3.089,7.253a30.288,30.288,0,0,1-2.015,4.029c-1.007,1.142-.6,3.022.739,3.022.806,0,1.545-.806,2.149-2.216,1.142-2.753,1.679-3.156,5.1-3.156,3.022,0,4.634,1.142,5.305,3.761.4,1.545,2.485,2.283,3.156,1.074.2-.269-.806-2.888-2.149-5.842-1.41-2.955-3.089-6.782-3.828-8.528C347.254-86.2,345.844-86.065,343.628-81.163Zm4.163,3.223c1.276,3.089,1.276,3.022-1.41,3.022-1.276,0-2.35-.134-2.35-.336a22.007,22.007,0,0,1,2.485-5.036A8.154,8.154,0,0,1,347.792-77.939Z" transform="translate(-239.426 85.285)" stroke="#000" stroke-width="0.5"/></g><path d="M437.1-76.136l.2,8.931,4.9.2c4.432.2,4.835.067,4.835-1.142,0-1.142-.537-1.343-3.492-1.545l-3.559-.2v-5.372l3.358-.336c2.418-.269,3.425-.672,3.559-1.477.2-.94-.4-1.142-3.358-1.343-3.492-.2-3.559-.269-3.559-2.216s.134-2.015,3.559-2.216c2.485-.134,3.492-.47,3.492-1.209S445.966-85,442-85h-5.1Z" transform="translate(-187.865 -15.868)" stroke="#000" stroke-width="0.5"/><path d="M469.842-81.508C466.216-73.584,464-68.279,464-67.607c0,1.746,2.418.537,3.693-1.813s1.545-2.485,4.835-2.686c3.492-.2,3.559-.2,4.7,2.35.806,1.679,1.746,2.619,2.753,2.753.806.134,1.477.067,1.477-.134a41.92,41.92,0,0,0-1.948-4.566c-1.074-2.35-2.888-6.245-4.029-8.8C474.274-83.12,473-85,472.461-85,471.857-85,470.715-83.455,469.842-81.508Zm3.828,3.358c1.477,2.955,1.41,3.223-1.276,3.223-1.545,0-2.216-.269-2.015-.873,1.209-3.29,1.679-4.5,1.947-4.5A5.337,5.337,0,0,1,473.67-78.15Z" transform="translate(-200.408 -16.499)" stroke="#000" stroke-width="0.5"/><path d="M536-75.934v9.066h4.1c3.492,0,4.029-.134,3.828-1.209-.134-.806-.94-1.209-2.753-1.343l-2.485-.2v-7.723c0-7.185-.067-7.655-1.343-7.655S536-84.53,536-75.934Z" transform="translate(-229.859 -16.499)" stroke="#000" stroke-width="0.5"/><path d="M561-75.934V-66.8l4.9-.2c3.761-.134,4.835-.4,4.835-1.209,0-.739-.94-1.074-3.492-1.209l-3.559-.2v-5.909l3.559-.2c2.552-.134,3.492-.47,3.492-1.209s-.94-1.074-3.358-1.343c-3.223-.336-3.358-.4-3.559-2.552l-.2-2.149h3.693c2.888,0,3.761-.2,3.761-1.007S570.066-85,566.036-85H561Z" transform="translate(-242.542 -16.567)" stroke="#000" stroke-width="0.5"/></g></g></svg>