<svg xmlns="http://www.w3.org/2000/svg" width="89.972" height="77.37" viewBox="0 0 89.972 77.37">
  <path id="Path_13" data-name="Path 13" d="M56.6,67.918q-.4.459-.842.9t-.9.842l1.108,1.108L57.7,69.029Zm7.741,3.764L58.623,77.4l6.984,6.985a4.031,4.031,0,0,0,2.858,1.178h0a4.046,4.046,0,0,0,2.859-6.9l-6.985-6.984ZM57.1,75.871l-1.032-1.032a.793.793,0,0,1,0-1.117l4.6-4.6a.793.793,0,0,1,1.116,0l1.032,1.032Zm-14.78-19.5h0A4.664,4.664,0,1,0,39.021,55a4.664,4.664,0,0,0,3.3,1.367ZM31.732,68.487a16.8,16.8,0,0,0,10.583,3.736h0A16.793,16.793,0,0,0,52.906,68.48,10.6,10.6,0,0,0,42.32,58.527h0a10.6,10.6,0,0,0-10.588,9.96Zm28.862-40.4L42.9,10.252V26.559a1.535,1.535,0,0,0,1.531,1.532ZM10.215,79.307a1.08,1.08,0,1,1,0-2.159H54.458a1.08,1.08,0,1,1,0,2.159Zm0-45.721a1.08,1.08,0,1,1,0-2.16H54.458a1.08,1.08,0,1,1,0,2.16Zm43.159,9.075a7.9,7.9,0,0,0-2.593,10.587h0a7.9,7.9,0,0,0,8.3,3.8,16.734,16.734,0,0,1-4.25,9.6,12.787,12.787,0,0,0-8.311-9.572,7.016,7.016,0,0,0,.619-.549,6.823,6.823,0,1,0-9.65,0,7.029,7.029,0,0,0,.62.549,12.784,12.784,0,0,0-8.313,9.58,16.741,16.741,0,0,1-3.781-6.986h0A16.851,16.851,0,0,1,53.374,42.661Zm8.794-5.083-6.834,3.945a19.01,19.01,0,0,0-24.946-.953H10.215a1.08,1.08,0,0,0,0,2.16H28.12a18.9,18.9,0,0,0-3.956,6.985H10.215a1.08,1.08,0,0,0,0,2.16H23.629a19.067,19.067,0,0,0,0,6.984H10.215a1.08,1.08,0,0,0,0,2.16H24.159A18.908,18.908,0,0,0,28.107,68H10.215a1.08,1.08,0,0,0,0,2.16H30.37a18.954,18.954,0,0,0,11.945,4.22h0A18.968,18.968,0,0,0,53.146,71l1.3,1.3a2.952,2.952,0,0,0,.1,4.072L62.168,84v.656a1.536,1.536,0,0,1-1.532,1.532H4.036A1.538,1.538,0,0,1,2.5,84.654h0V10.35h0A1.54,1.54,0,0,1,4.036,8.818h36.7V22.282H10.215a1.08,1.08,0,0,0,0,2.16H40.736v2.117a3.7,3.7,0,0,0,3.691,3.692H62.168Zm20.408-.011a2.554,2.554,0,0,0-2.316-4.015l1.158,2.005c.011.019.022.039.032.059l1.126,1.951ZM67.243,50.35l-5.724-9.914L54.8,44.316l-.056.035a5.745,5.745,0,0,0-2.1,7.817h0a5.748,5.748,0,0,0,7.817,2.093l6.78-3.915ZM65.062,54.1l3.259-1.882,5.173,8.96L71.012,62.61h0a.9.9,0,0,1-1.225-.33c-.011-.019-.022-.037-.034-.055ZM54.577,48.95l4.5-2.6A1.078,1.078,0,0,0,58,44.486l-4.5,2.6a1.078,1.078,0,1,0,1.08,1.865Zm1.446,2.513,4.5-2.6A1.075,1.075,0,1,0,59.45,47l-4.5,2.6a1.075,1.075,0,1,0,1.071,1.864Zm1.451,2.514,4.5-2.6A1.076,1.076,0,0,0,60.9,49.513l-4.5,2.6a1.075,1.075,0,0,0,1.071,1.865Zm13.743-1.052,1.614-.932L71.8,50.207l-1.614.932,1.03,1.784Zm9.328-5.413L73.816,46.8a1.074,1.074,0,0,0-.668.147l-4.038,2.33-4.782-8.282V38.814l3.109-1.8a1.076,1.076,0,0,0,.449-.5h0l.609-1.37,2.134-4.811L80.543,47.5ZM71.713,27.9l1-2.253a.278.278,0,0,1,.09-.117.27.27,0,0,1,.141-.043.278.278,0,0,1,.149.031.27.27,0,0,1,.105.107l6.356,11.009c.011.019.023.037.034.055L85.91,47.638a.293.293,0,0,1,.042.15.313.313,0,0,1-.157.24.276.276,0,0,1-.152.021l-2.446-.26Zm14.97,5.86,4.148-2.4a1.077,1.077,0,0,0-1.08-1.864L85.6,31.9a1.078,1.078,0,0,0,1.08,1.865ZM86.41,38.8l4.733,1.268a1.079,1.079,0,0,0,.557-2.084l-4.733-1.268A1.079,1.079,0,0,0,86.41,38.8Zm-3.161-8.85,1.209-4.511a1.079,1.079,0,0,0-2.084-.557l-1.209,4.511a1.079,1.079,0,0,0,2.084.557ZM61.3,56.265A18.962,18.962,0,0,1,57.938,66.2l1.3,1.3a2.957,2.957,0,0,1,2.933-.613V55.769l-.625.361Z" transform="translate(-2.5 -8.818)" fill="#005ca2" fill-rule="evenodd"/>
</svg>
