<svg xmlns="http://www.w3.org/2000/svg" width="81.195" height="77.576" viewBox="0 0 81.195 77.576">
  <g id="SVGRepo_iconCarrier" transform="translate(-1.5 -1.952)">
    <path id="Path_14" data-name="Path 14" d="M80.489,31.438a3.082,3.082,0,0,0-3.128-2.275A8.214,8.214,0,0,1,68.829,24.9a8.642,8.642,0,0,1,.569-9.385,2.659,2.659,0,0,0-.284-3.7,38.853,38.853,0,0,0-15.925-9.1,2.9,2.9,0,0,0-3.413,1.706,8.753,8.753,0,0,1-15.925,0,2.649,2.649,0,0,0-3.413-1.706A36.5,36.5,0,0,0,14.513,12.1a2.659,2.659,0,0,0-.284,3.7,8.674,8.674,0,0,1,.569,9.385,9.183,9.183,0,0,1-8.531,4.266,2.818,2.818,0,0,0-3.128,2.275A31.951,31.951,0,0,0,2,40.822a35.327,35.327,0,0,0,1.138,9.385A2.62,2.62,0,0,0,6.266,52.2,8.214,8.214,0,0,1,14.8,56.463a8.642,8.642,0,0,1-.569,9.385,2.659,2.659,0,0,0,.284,3.7,40.5,40.5,0,0,0,16.21,9.385,2.9,2.9,0,0,0,3.413-1.706,8.753,8.753,0,0,1,15.925,0,2.733,2.733,0,0,0,2.559,1.706h.853a40.5,40.5,0,0,0,16.21-9.385,2.679,2.679,0,0,0,.284-3.7,8.674,8.674,0,0,1-.569-9.385A9.183,9.183,0,0,1,77.929,52.2a2.818,2.818,0,0,0,3.128-2.275,35.328,35.328,0,0,0,1.138-9.385C82.195,37.41,81.342,34.566,80.489,31.438Zm-50.9,15.925a2.749,2.749,0,0,1,0,3.981,2.749,2.749,0,0,1-3.981,0l-8.531-8.531a2.749,2.749,0,0,1,0-3.981L25.6,30.3a2.815,2.815,0,0,1,3.981,3.981l-6.541,6.541ZM50.06,30.585,38.685,53.335a2.733,2.733,0,0,1-2.559,1.706c-.569,0-.853,0-1.138-.284a2.51,2.51,0,0,1-1.138-3.7L45.226,28.31a2.51,2.51,0,0,1,3.7-1.138A2.735,2.735,0,0,1,50.06,30.585ZM66.554,42.813l-8.531,8.531a2.749,2.749,0,0,1-3.981,0,2.749,2.749,0,0,1,0-3.981l6.541-6.541-6.541-6.541A2.815,2.815,0,0,1,58.023,30.3l8.531,8.531A2.749,2.749,0,0,1,66.554,42.813Z" transform="translate(0 0)" fill="#005ca2" stroke="#005ca2" stroke-width="1"/>
  </g>
</svg>
