<svg xmlns="http://www.w3.org/2000/svg" xmlns:xlink="http://www.w3.org/1999/xlink" width="115.547" height="87.108" viewBox="0 0 115.547 87.108">
  <defs>
    <linearGradient id="linear-gradient" x1="0.5" y1="-0.195" x2="0.5" y2="1.296" gradientUnits="objectBoundingBox">
      <stop offset="0" stop-color="#0994dc"/>
      <stop offset="0.35" stop-color="#66cef5"/>
      <stop offset="0.846" stop-color="#127bca"/>
      <stop offset="1" stop-color="#127bca"/>
    </linearGradient>
    <linearGradient id="linear-gradient-2" x1="0.5" y1="-0.195" x2="0.5" y2="1.296" gradientUnits="objectBoundingBox">
      <stop offset="0" stop-color="#0e76bc"/>
      <stop offset="0.36" stop-color="#36aee8"/>
      <stop offset="0.846" stop-color="#00adef"/>
      <stop offset="1" stop-color="#00adef"/>
    </linearGradient>
    <linearGradient id="linear-gradient-3" x1="0.5" y1="1.109" x2="0.5" y2="-0.062" gradientUnits="objectBoundingBox">
      <stop offset="0" stop-color="#1c63b7"/>
      <stop offset="0.5" stop-color="#33bdf2"/>
      <stop offset="1" stop-color="#33bdf2" stop-opacity="0.42"/>
    </linearGradient>
    <linearGradient id="linear-gradient-4" x1="0.5" y1="-0.195" x2="0.5" y2="1.296" gradientUnits="objectBoundingBox">
      <stop offset="0" stop-color="#166ab8"/>
      <stop offset="0.4" stop-color="#36aee8"/>
      <stop offset="0.846" stop-color="#0798dd"/>
      <stop offset="1" stop-color="#0798dd"/>
    </linearGradient>
    <linearGradient id="linear-gradient-5" x1="0.5" y1="-0.195" x2="0.5" y2="1.296" gradientUnits="objectBoundingBox">
      <stop offset="0" stop-color="#124379"/>
      <stop offset="0.39" stop-color="#1487cb"/>
      <stop offset="0.78" stop-color="#165197"/>
      <stop offset="1" stop-color="#165197"/>
    </linearGradient>
    <linearGradient id="linear-gradient-6" y1="0.5" x2="1" y2="0.5" gradientUnits="objectBoundingBox">
      <stop offset="0" stop-color="#33bdf2" stop-opacity="0.698"/>
      <stop offset="1" stop-color="#1dacd8"/>
    </linearGradient>
    <linearGradient id="linear-gradient-7" x1="0.5" y1="0.947" x2="0.5" y2="-0.03" gradientUnits="objectBoundingBox">
      <stop offset="0" stop-color="#136ab4"/>
      <stop offset="0.6" stop-color="#59caf5" stop-opacity="0.549"/>
      <stop offset="1" stop-color="#59caf5" stop-opacity="0.235"/>
    </linearGradient>
    <linearGradient id="linear-gradient-8" y1="0.5" x2="1" y2="0.5" gradientUnits="objectBoundingBox">
      <stop offset="0" stop-color="#05a1e6" stop-opacity="0.247"/>
      <stop offset="1" stop-color="#05a1e6"/>
    </linearGradient>
    <linearGradient id="linear-gradient-9" x1="0.5" y1="1.243" x2="0.5" y2="-0.094" gradientUnits="objectBoundingBox">
      <stop offset="0" stop-color="#318ed5"/>
      <stop offset="1" stop-color="#38a7e4"/>
    </linearGradient>
    <linearGradient id="linear-gradient-10" x1="0.5" y1="0.912" x2="0.5" y2="-0.768" gradientUnits="objectBoundingBox">
      <stop offset="0" stop-color="#05a1e6"/>
      <stop offset="1" stop-color="#05a1e6" stop-opacity="0.549"/>
    </linearGradient>
    <linearGradient id="linear-gradient-11" x1="0.5" y1="1" x2="0.5" gradientUnits="objectBoundingBox">
      <stop offset="0" stop-color="#1959a6"/>
      <stop offset="0.5" stop-color="#05a1e6"/>
      <stop offset="0.918" stop-color="#7ec5ea"/>
      <stop offset="1" stop-color="#7ec5ea"/>
    </linearGradient>
    <linearGradient id="linear-gradient-12" x1="0.598" y1="0.946" x2="0.385" y2="0.058" gradientUnits="objectBoundingBox">
      <stop offset="0" stop-color="#165096"/>
      <stop offset="1" stop-color="#0d82ca"/>
    </linearGradient>
    <linearGradient id="linear-gradient-13" x1="0.5" y1="0.77" x2="0.5" y2="-0.033" gradientUnits="objectBoundingBox">
      <stop offset="0" stop-color="#05a1e6"/>
      <stop offset="0.874" stop-color="#0495d6"/>
      <stop offset="1" stop-color="#0495d6"/>
    </linearGradient>
    <linearGradient id="linear-gradient-14" x1="0.653" y1="-0.042" x2="0.343" y2="1.058" gradientUnits="objectBoundingBox">
      <stop offset="0" stop-color="#38a7e4" stop-opacity="0.329"/>
      <stop offset="0.962" stop-color="#0e88d3"/>
      <stop offset="1" stop-color="#0e88d3"/>
    </linearGradient>
    <linearGradient id="linear-gradient-15" x1="0.5" y1="-0.003" x2="0.5" y2="1.019" gradientUnits="objectBoundingBox">
      <stop offset="0" stop-color="#168cd4"/>
      <stop offset="0.5" stop-color="#1c87cc"/>
      <stop offset="1" stop-color="#154b8d"/>
    </linearGradient>
    <linearGradient id="linear-gradient-16" x1="0.167" y1="-1.056" x2="0.878" y2="1.198" gradientUnits="objectBoundingBox">
      <stop offset="0" stop-color="#97d6ee"/>
      <stop offset="0.703" stop-color="#55c1ea"/>
      <stop offset="1" stop-color="#55c1ea"/>
    </linearGradient>
    <linearGradient id="linear-gradient-17" x1="0.069" y1="0.937" x2="0.758" y2="-0.168" gradientUnits="objectBoundingBox">
      <stop offset="0" stop-color="#7accec"/>
      <stop offset="1" stop-color="#3fb7ed"/>
    </linearGradient>
    <linearGradient id="linear-gradient-18" x1="0.5" y1="0.064" x2="0.5" y2="1.28" gradientUnits="objectBoundingBox">
      <stop offset="0" stop-color="#1da7e7"/>
      <stop offset="1" stop-color="#37abe7" stop-opacity="0"/>
    </linearGradient>
  </defs>
  <g id="SVGRepo_iconCarrier" transform="translate(-0.987)">
    <g id="Group_442" data-name="Group 442" transform="translate(0.987 0)">
      <g id="Group_440" data-name="Group 440" transform="translate(15.365 55.035)">
        <path id="Path_733" data-name="Path 733" d="M5.719,72.347A2.4,2.4,0,0,1,4.992,74.1a2.385,2.385,0,0,1-1.761.737A2.29,2.29,0,0,1,1.514,74.1a2.54,2.54,0,0,1,0-3.51,2.3,2.3,0,0,1,1.717-.726,2.378,2.378,0,0,1,1.761.736,2.408,2.408,0,0,1,.726,1.752" transform="translate(-0.81 -42.761)"/>
        <path id="Path_734" data-name="Path 734" d="M52.67,31.844H48.181L31.89,6.685A11.542,11.542,0,0,1,30.9,4.7h-.134a32.773,32.773,0,0,1,.175,4.335V31.844h-3.7V.279h4.8l15.8,24.763c.629.983,1.059,1.687,1.277,2.11h.088a33.254,33.254,0,0,1-.223-4.641V.279H52.67V31.844Z" transform="translate(-16.95 -0.278)"/>
        <path id="Path_735" data-name="Path 735" d="M127.208,31.844h-16.73V.279h16V3.624H114.175v10.5h11.4v3.346h-11.4V28.5h13.033v3.346Z" transform="translate(-67.769 -0.278)"/>
        <path id="Path_736" data-name="Path 736" d="M184.26,3.622h-9.092V31.843h-3.7V3.622h-9.11V.276h21.9V3.622Z" transform="translate(-99.445 -0.276)"/>
      </g>
      <g id="Group_441" data-name="Group 441" transform="translate(0)">
        <path id="Path_737" data-name="Path 737" d="M88.5,18.881c4.164,12.734,5.742,35.451,17.919,35.451h0a14.992,14.992,0,0,0,2.8-.27h0C98.153,51.481,96.841,29.012,90.086,17.376h0c-.53.481-1.055.983-1.587,1.505" transform="translate(-48.368 -9.481)" fill="url(#linear-gradient)"/>
        <path id="Path_738" data-name="Path 738" d="M91.992,15.921c6.755,11.636,8.066,34.106,19.136,36.687h0a17.607,17.607,0,0,0,2.614-.706h0c-9.936-4.869-12.682-26.688-20.353-37.192h0q-.7.58-1.4,1.212" transform="translate(-50.274 -8.026)" fill="url(#linear-gradient-2)"/>
        <path id="Path_739" data-name="Path 739" d="M101.047,2.145a15.042,15.042,0,0,0-2.806.27,21.484,21.484,0,0,0-7.49,3.131,18.594,18.594,0,0,1,1.962,2.308A26.9,26.9,0,0,1,100.369,3.2a17.055,17.055,0,0,1,2.856-.793,8.8,8.8,0,0,0-2.178-.266" transform="translate(-49.597 -1.171)" fill="#14559a"/>
        <path id="Path_740" data-name="Path 740" d="M135.8,40.581q1.525-1.212,3.055-2.678c-4.231-12.675-5.746-35.717-18.008-35.717a14.519,14.519,0,0,0-2.644.245c11.17,2.778,12.6,27.08,17.6,38.149" transform="translate(-64.575 -1.193)" fill="url(#linear-gradient-3)"/>
        <path id="Path_741" data-name="Path 741" d="M115.588,2.409a8.806,8.806,0,0,0-2.178-.266l4.822.018a14.351,14.351,0,0,0-2.644.247" transform="translate(-61.96 -1.17)" fill="#3092c4"/>
        <path id="Path_742" data-name="Path 742" d="M147.4,90.819a18.171,18.171,0,0,1-1.383-1.494,25.362,25.362,0,0,1-6.16,3.289,9.492,9.492,0,0,0,2.3.782,9.736,9.736,0,0,0,1.956.193,12.833,12.833,0,0,0,5.646-1.011,10.717,10.717,0,0,1-2.356-1.76" transform="translate(-76.392 -48.738)" fill="#1969bc"/>
        <path id="Path_743" data-name="Path 743" d="M111.917,3.524c10,5.233,10.874,28.929,18.857,38.55h0c.535-.377,1.065-.777,1.594-1.2h0c-5-11.069-6.426-35.373-17.593-38.149h0a17.294,17.294,0,0,0-2.858.8" transform="translate(-61.146 -1.488)" fill="url(#linear-gradient-4)"/>
        <path id="Path_744" data-name="Path 744" d="M95.067,9.128c7.67,10.5,10.417,32.324,20.353,37.192h0a25.362,25.362,0,0,0,6.16-3.289h0c-7.983-9.622-8.852-33.318-18.857-38.55h0a26.846,26.846,0,0,0-7.656,4.647" transform="translate(-51.952 -2.445)" fill="url(#linear-gradient-5)"/>
        <path id="Path_745" data-name="Path 745" d="M73,16.3a114.373,114.373,0,0,0-3.915,10.956A81.492,81.492,0,0,1,77.9,16.6a31.991,31.991,0,0,0-1.3-3.4A43.97,43.97,0,0,0,73,16.3" transform="translate(-37.773 -7.205)" fill="url(#linear-gradient-6)"/>
        <path id="Path_746" data-name="Path 746" d="M86.7,11.479c-.353.253-.708.511-1.065.784a32.036,32.036,0,0,1,1.3,3.4c.531-.52,1.059-1.024,1.587-1.505a21.067,21.067,0,0,0-1.823-2.68" transform="translate(-46.805 -6.263)" fill="#2b74b1"/>
        <path id="Path_747" data-name="Path 747" d="M89.238,9.629c-.42.266-.838.546-1.26.84A21.169,21.169,0,0,1,89.8,13.151c.466-.422.933-.829,1.4-1.213a18.591,18.591,0,0,0-1.962-2.308" transform="translate(-48.084 -5.254)" fill="#125a9e"/>
        <path id="Path_748" data-name="Path 748" d="M205.142.005c-5.658,21.821-17.476,39.348-27.384,43.766h-.019c-.18.082-.359.156-.535.229a.489.489,0,0,1-.065.025c-.052.021-.1.037-.152.058a.4.4,0,0,1-.069.028c-.084.03-.165.055-.247.088-.035.015-.069.024-.1.036a1.247,1.247,0,0,1-.123.04c-.037.015-.076.025-.119.042s-.073.021-.106.036c-.073.021-.139.039-.212.064a.4.4,0,0,0-.089.024c-.045.015-.095.025-.144.039a.434.434,0,0,1-.1.027c-.05.015-.106.028-.156.04l-.189.042a4.035,4.035,0,0,0,1.418.249c9.4,0,18.868-16.837,34.542-44.837H205.14Z" transform="translate(-95.748 0)" fill="url(#linear-gradient-7)"/>
        <path id="Path_749" data-name="Path 749" d="M29.445,3.02c.006,0,.013-.015.017-.015a.019.019,0,0,0,.022-.015H29.5c.052-.018.1-.039.152-.058a.028.028,0,0,0,.03-.015c.013,0,.026-.015.039-.017.056-.018.112-.039.164-.058h.009c.125-.037.24-.083.36-.126.017,0,.034-.015.054-.015.05-.016.1-.034.154-.046a.3.3,0,0,1,.071-.022c.054-.016.106-.034.156-.046.022,0,.043-.015.059-.016.173-.048.344-.092.517-.134.024,0,.045-.015.071-.016a.99.99,0,0,1,.151-.03.262.262,0,0,1,.074-.022c.05-.015.1-.016.152-.028h.035c.1-.021.21-.039.314-.058h.063a1.324,1.324,0,0,1,.145-.025c.028,0,.056-.015.082-.015a1.07,1.07,0,0,0,.139-.021.148.148,0,0,0,.076-.015c.11-.015.223-.021.338-.03-.325-.031-.66-.052-1-.052C21.321,2.125,6.744,21.757.177,47.181H1.442c2.1-3.748,3.99-7.293,5.716-10.621,4.6-18.008,13.966-30.289,22.287-33.542" transform="translate(-0.177 -1.159)" fill="url(#linear-gradient-8)"/>
        <path id="Path_750" data-name="Path 750" d="M77.7,14.306a43.942,43.942,0,0,1,3.6-3.094,17.031,17.031,0,0,0-.859-1.659A20.327,20.327,0,0,0,77.7,14.306" transform="translate(-42.475 -5.212)" fill="#0d82ca"/>
        <path id="Path_751" data-name="Path 751" d="M79.451,4.339a9.025,9.025,0,0,1,1.877,2.332c.178-.219.359-.422.546-.611a10.608,10.608,0,0,0-2.557-1.789,1.163,1.163,0,0,0,.113.054s.015.015.021.015" transform="translate(-43.358 -2.33)" fill="#0d82ca"/>
        <path id="Path_752" data-name="Path 752" d="M15.54,37.635C25.188,19.044,29.759,7.277,37.828,4.092h0C29.508,7.348,20.139,19.629,15.54,37.635" transform="translate(-8.559 -2.233)" fill="url(#linear-gradient-9)"/>
        <path id="Path_753" data-name="Path 753" d="M84.287,8.208c-.188.191-.366.392-.546.611a17.257,17.257,0,0,1,.86,1.659c.357-.273.712-.531,1.065-.784a14.484,14.484,0,0,0-1.379-1.487" transform="translate(-45.772 -4.478)" fill="#127bca"/>
        <path id="Path_754" data-name="Path 754" d="M24.251,70.008h0a1.2,1.2,0,0,1-.175.021h-.033c-.05,0-.1.015-.149.015H23.87c-.121.015-.24.015-.355.024h-.037c9.765-.273,14.228-5.162,16.443-12.253,1.684-5.376,3.066-9.9,4.278-13.7A194.169,194.169,0,0,0,31.87,64.416,10.112,10.112,0,0,1,24.251,70" transform="translate(-12.891 -24.068)" fill="url(#linear-gradient-10)"/>
        <path id="Path_755" data-name="Path 755" d="M25.18,56.852h0A10.108,10.108,0,0,0,32.8,51.268h0A195,195,0,0,1,45.126,30.961h0a114.1,114.1,0,0,1,3.917-10.956h0C40.9,27.758,32.722,40.648,25.18,56.848" transform="translate(-13.819 -10.915)" fill="url(#linear-gradient-11)"/>
        <path id="Path_756" data-name="Path 756" d="M8.675,77.916C6.949,81.244,5.061,84.789,2.96,88.537H6.641a89.973,89.973,0,0,1,2.035-10.62" transform="translate(-1.695 -42.513)" fill="#05a1e6"/>
        <path id="Path_757" data-name="Path 757" d="M38.514,2.312c-.03,0-.052.015-.078.015h0a.639.639,0,0,1-.137.02h0a.162.162,0,0,0-.082.015h0a1.413,1.413,0,0,1-.145.025h0a.1.1,0,0,0-.063.015h0l-.314.055h-.035a1.233,1.233,0,0,1-.152.03h0a.26.26,0,0,1-.076.021h0a1.414,1.414,0,0,1-.149.03h0a.142.142,0,0,1-.071.016h0c-.173.042-.344.086-.517.134h0c-.018,0-.037.015-.059.018h0l-.156.046h0a.215.215,0,0,1-.071.021h0c-.052.015-.1.03-.154.046h0c-.02,0-.037.015-.056.015h0c-.119.045-.236.089-.359.126h0c-.052.016-.108.037-.163.056h0a.344.344,0,0,1-.069.028h0c-.052.016-.1.037-.152.057h0a.256.256,0,0,1-.05.024h0C27.336,6.308,22.765,18.075,13.117,36.666h0a89.565,89.565,0,0,0-2.035,10.62H11.6c1.455,0,1.866-.015,3.54-.015h1.622c.115-.015.234-.015.355-.024h.022c.05,0,.1-.015.149-.015h.035c.054,0,.115-.015.175-.021h0c7.542-16.2,15.719-29.09,23.863-36.843h0A20.4,20.4,0,0,1,44.1,5.617h0A9,9,0,0,0,42.23,3.283h0s-.019,0-.02-.015h0c-.039-.016-.076-.036-.115-.055h0l-.113-.058h0A1.228,1.228,0,0,1,41.87,3.1h0a1.032,1.032,0,0,1-.13-.055h0L41.637,3h0c-.073-.028-.145-.058-.214-.089h0c-.032-.015-.061-.022-.091-.034h0c-.05-.018-.108-.042-.16-.064h0a.546.546,0,0,0-.085-.028h0l-.221-.076h-.018c-.086-.028-.169-.049-.256-.073h0a.109.109,0,0,0-.058-.018h0c-.076-.021-.143-.042-.216-.061h0c-.018,0-.035-.015-.05-.015h0c-.175-.046-.355-.083-.537-.117h0c-.019,0-.037-.015-.056-.015h0c-.078-.015-.154-.028-.232-.037h0A.061.061,0,0,0,39.4,2.36h0c-.093-.015-.184-.025-.275-.036h-.048C39,2.31,38.93,2.309,38.862,2.3h0c-.117.015-.229.021-.338.031" transform="translate(-6.127 -1.255)" fill="url(#linear-gradient-12)"/>
        <path id="Path_758" data-name="Path 758" d="M186.689,13.252c-1.856,5.946-3.36,10.852-4.668,14.888h0a161.662,161.662,0,0,0,14.888-26h0c-5.573,1.75-8.546,5.757-10.221,11.114" transform="translate(-99.396 -1.167)" fill="url(#linear-gradient-13)"/>
        <path id="Path_759" data-name="Path 759" d="M181.445,43.406c-.26.132-.52.258-.777.372,9.908-4.419,21.726-21.945,27.384-43.766h-1.147c-13,23.222-17.181,38.768-25.461,43.395" transform="translate(-98.658 -0.006)" fill="url(#linear-gradient-14)"/>
        <path id="Path_760" data-name="Path 760" d="M165.688,73.84c2.156-2.631,3.912-7.1,6.309-14.475a72.454,72.454,0,0,1-8.335,9.726c0,.015,0,.015-.015.024a25.363,25.363,0,0,0,2.035,4.725" transform="translate(-89.371 -32.391)" fill="#079ae1"/>
        <path id="Path_761" data-name="Path 761" d="M164.595,91.223a8.828,8.828,0,0,1-2.375,2.083c-.189.11-.381.214-.576.308a8.349,8.349,0,0,0,3.023.953h0c.164.016.325.031.494.043h.03a1.317,1.317,0,0,1,.238.015h.806a.2.2,0,0,0,.091-.015.736.736,0,0,0,.178-.015h.088c.061,0,.128-.015.193-.021h.015c.02,0,.04-.015.06-.015.069-.015.14-.021.206-.031h.061c.075-.015.154-.024.232-.039h.037c.156-.03.309-.059.463-.1a6.728,6.728,0,0,1-3.271-3.144" transform="translate(-88.278 -49.774)" fill="#1969bc"/>
        <path id="Path_762" data-name="Path 762" d="M127.936,97.54a14.855,14.855,0,0,0,2.8-.271,17.373,17.373,0,0,0,2.614-.7,9.506,9.506,0,0,0,2.295.782,9.754,9.754,0,0,0,1.959.193Z" transform="translate(-69.886 -52.688)" fill="#1e5cb3"/>
        <path id="Path_763" data-name="Path 763" d="M149.215,97.5a12.824,12.824,0,0,0,5.644-1.011,8.352,8.352,0,0,0,3.023.953h0c.164.016.325.031.494.043h.03a1.321,1.321,0,0,1,.238.015h-9.429Z" transform="translate(-81.493 -52.646)" fill="#1e5cb3"/>
        <path id="Path_764" data-name="Path 764" d="M170.6,98.416h.53a.194.194,0,0,0,.091-.015.763.763,0,0,0,.18-.015h.088c.061,0,.128-.015.191-.021h.016c.02,0,.039-.015.058-.015.068-.015.139-.021.206-.031a.1.1,0,0,0,.064-.015c.076-.015.154-.022.233-.037h.037c.156-.03.309-.06.463-.1h0a4.04,4.04,0,0,0,1.418.249l-3.572.015Z" transform="translate(-93.164 -53.564)" fill="#1d60b5"/>
        <path id="Path_765" data-name="Path 765" d="M158.076,80.805V80.79q-1.53,1.463-3.055,2.678c-.532.422-1.061.821-1.6,1.2a18.032,18.032,0,0,0,1.383,1.494,10.713,10.713,0,0,0,2.356,1.76c.194-.1.387-.2.574-.308a8.82,8.82,0,0,0,2.377-2.083A25.394,25.394,0,0,1,158.08,80.8" transform="translate(-83.794 -44.082)" fill="#175fab"/>
        <path id="Path_766" data-name="Path 766" d="M196.43.011h-5.77c-.312.015-.615.025-.914.045h0c-.141.3-.286.606-.426.911h0a161.624,161.624,0,0,1-14.888,26h0c-2.4,7.371-4.153,11.844-6.308,14.475h0a6.746,6.746,0,0,0,3.268,3.146h0a.6.6,0,0,1,.1-.022h.021c.022,0,.046-.015.07-.015h0c.052-.015.108-.024.16-.04h0a.794.794,0,0,1,.095-.027h0c.049-.015.1-.025.143-.037h0a.344.344,0,0,1,.089-.025h0c.075-.024.141-.042.212-.064h0a.607.607,0,0,1,.106-.036h0c.041-.015.082-.025.119-.043h0c.043-.015.085-.022.123-.039h0c.033-.015.069-.024.1-.037h0c.084-.03.165-.055.249-.088h0c.023,0,.045-.021.069-.025h0c.05-.021.1-.037.152-.059h0a.191.191,0,0,1,.065-.024h0c.175-.073.355-.147.535-.229h.019c.257-.113.517-.24.775-.372h0c8.282-4.627,12.463-20.173,25.463-43.395h-3.631Z" transform="translate(-91.813 -0.006)" fill="url(#linear-gradient-15)"/>
        <path id="Path_767" data-name="Path 767" d="M72.2,2.243a.09.09,0,0,1,.059.015.478.478,0,0,1,.151.016h.05c.091.015.182.022.275.036a.056.056,0,0,1,.046.015c.076.015.154.027.232.039.017,0,.039.015.058.015.178.036.361.073.535.119.017,0,.033.015.048.015.074.018.141.04.216.061.022,0,.039.015.059.018.087.022.169.045.255.073,0,0,.009,0,.019.015.072.022.147.051.223.076a.423.423,0,0,0,.085.028c.052.022.11.045.16.065a.325.325,0,0,1,.091.031c.069.031.141.059.212.089.037.015.069.031.1.045a.917.917,0,0,0,.128.055l.113.053c.039.021.076.037.113.058a10.663,10.663,0,0,1,2.557,1.79,8.3,8.3,0,0,1,.907-.823,9.983,9.983,0,0,0-5.913-1.914c-.26,0-.52.015-.784.034" transform="translate(-39.474 -1.217)" fill="#7dcbec"/>
        <path id="Path_768" data-name="Path 768" d="M84.943,7.219a14.479,14.479,0,0,1,1.379,1.487c.422-.294.84-.576,1.26-.84A13.29,13.29,0,0,0,85.848,6.4a8.115,8.115,0,0,0-.9.823" transform="translate(-46.428 -3.49)" fill="#5ec5ed"/>
        <path id="Path_769" data-name="Path 769" d="M71-6.345c.264-.022.524-.032.784-.032a9.994,9.994,0,0,1,5.913,1.912C79.508-5.9,81.7-6.4,84.746-6.4H70c.34,0,.673.02,1,.05" transform="translate(-38.273 7.37)" fill="url(#linear-gradient-16)"/>
        <path id="Path_770" data-name="Path 770" d="M93.989-9.63c-3.046,0-5.238.5-7.052,1.931a13.4,13.4,0,0,1,1.732,1.47,21.5,21.5,0,0,1,7.492-3.133,15.2,15.2,0,0,1,2.8-.268Z" transform="translate(-47.516 10.605)" fill="url(#linear-gradient-17)"/>
        <path id="Path_771" data-name="Path 771" d="M172.015,27.05c1.31-4.04,2.81-8.943,4.67-14.892C178.361,6.8,181.329,2.793,186.9,1.044c.147-.3.286-.608.429-.911C178.246.678,174,5.3,171.863,12.143c-3.737,11.948-6,19.693-8.18,24.629a72.621,72.621,0,0,0,8.332-9.722" transform="translate(-89.391 -0.073)" fill="url(#linear-gradient-18)"/>
      </g>
    </g>
  </g>
</svg>
