<svg xmlns="http://www.w3.org/2000/svg" width="150.851" height="81.261" viewBox="0 0 150.851 81.261"><g transform="translate(-139 268.729)"><g transform="translate(139 -268.729)"><g transform="translate(0 0)"><path d="M138.223,62.088h-.866v10.4h.866V68.57l3.809,3.917h1.1l-3.953-4.1,3.665-3.126h-1.111l-3.506,2.953ZM130.3,68.325c0-1.3.649-2.492,2.078-2.492a1.79,1.79,0,0,1,1.9,1.988v4.666h.866V67.966c0-.835-.187-2.923-2.554-2.923a2.491,2.491,0,0,0-2.265,1.309l-.029-.029-.042-1.066h-.895c.029.49.072,1.066.072,1.627v5.6h.865Zm-3.967-.272a9.862,9.862,0,0,0-3.275.33,2.234,2.234,0,0,0,.952,4.321,2.717,2.717,0,0,0,2.265-1.182l.043-.1h.029l.03,1.065h.894c-.029-.49-.087-1.065-.072-1.627V67.432c.029-1.656-.967-2.389-2.568-2.389-1.385,0-2.5.561-2.713,2.045h.923c.117-.979.866-1.254,1.775-1.254,1.024,0,1.631.374,1.718,1.557Zm-3.794,2.419c0-1.815,2.568-1.584,3.794-1.627.086,1.513-.275,3.068-2.164,3.068A1.444,1.444,0,0,1,122.541,70.471Zm-8.051.952.029-.059a2.963,2.963,0,0,0,2.524,1.34c2.107,0,2.928-2.046,2.928-3.86,0-1.873-.821-3.8-2.97-3.8a2.9,2.9,0,0,0-2.482,1.309l-.029-.029V62.088h-.866V70.86c0,.563-.042,1.137-.072,1.627h.895Zm2.337-5.59c1.645,0,2.208,1.557,2.208,2.939,0,1.34-.419,3.14-2.078,3.14-1.89,0-2.467-1.541-2.467-3.182C114.49,67.26,115.139,65.833,116.827,65.833Zm-6.405,2.22a9.865,9.865,0,0,0-3.275.33A2.234,2.234,0,0,0,108.1,72.7a2.715,2.715,0,0,0,2.265-1.182l.043-.1h.029l.03,1.065h.894c-.029-.49-.087-1.065-.072-1.627V67.432c.029-1.656-.967-2.389-2.568-2.389-1.385,0-2.5.561-2.713,2.045h.923c.116-.979.866-1.254,1.774-1.254,1.025,0,1.631.374,1.718,1.557Zm-3.794,2.419c0-1.815,2.568-1.584,3.794-1.627.087,1.513-.274,3.068-2.165,3.068A1.444,1.444,0,0,1,106.627,70.471Zm-5.107.087c0,.979-.1,2.146,1.731,2.146a3.522,3.522,0,0,0,.88-.131v-.749a2.54,2.54,0,0,1-.75.087.894.894,0,0,1-1-1.023V66.05h1.645v-.793h-1.645V63.341l-.865.376v1.54h-1.443v.793h1.443Zm-3.838-2.506a9.864,9.864,0,0,0-3.275.33A2.234,2.234,0,0,0,95.36,72.7a2.717,2.717,0,0,0,2.265-1.182l.043-.1H97.7l.029,1.065h.894c-.029-.49-.087-1.065-.072-1.627V67.432c.029-1.656-.967-2.389-2.568-2.389-1.385,0-2.5.561-2.712,2.045h.922c.116-.979.867-1.254,1.775-1.254,1.025,0,1.631.374,1.717,1.557Zm-3.794,2.419c0-1.815,2.569-1.584,3.794-1.627.087,1.513-.274,3.068-2.164,3.068A1.445,1.445,0,0,1,93.887,70.471ZM83.1,62.088v10.4H85.91c3.419,0,5.367-1.756,5.367-5.2s-1.948-5.2-5.367-5.2Zm.937,9.535v-8.67h1.472c2.958-.086,4.762,1.268,4.762,4.336,0,2.621-1.2,4.334-4.127,4.334Zm-10.1-1.065c0,.979-.1,2.146,1.731,2.146a3.522,3.522,0,0,0,.88-.131v-.749a2.54,2.54,0,0,1-.75.087.894.894,0,0,1-1-1.023V66.05h1.645v-.793H74.8V63.341l-.865.376v1.54H72.492v.793h1.443Zm-8.094-3.5C65.841,68.4,67,68.73,68.135,69s2.294.433,2.294,1.47c0,1.007-.967,1.44-1.891,1.44-.981,0-1.933-.317-2.005-1.4H65.6c.029,1.6,1.471,2.19,2.727,2.19,1.529,0,3.044-.736,3.044-2.363a1.76,1.76,0,0,0-1.226-1.686c-1.962-.69-3.362-.59-3.362-1.656,0-.85.823-1.167,1.631-1.167.894,0,1.7.3,1.788,1.211h.938c-.115-1.527-1.27-2-2.64-2C67.227,65.042,65.841,65.561,65.841,67.057ZM62.35,68.139c.029-1.383.707-2.306,1.991-2.306.173,0,.361.044.533.059v-.836c-.288-.013-.577-.029-.865-.013a1.862,1.862,0,0,0-1.63,1.281H62.35l-.043-1.066h-.895c.029.49.087,1.066.073,1.627v5.6h.865ZM58.21,63.17h1.01V62.088H58.21Zm.072,9.318h.865V65.257h-.865Zm-6.68,0v-5h4.776v-.865H51.6V62.953H56.55v-.865H50.664v10.4Z" transform="translate(7.235 8.557)" fill="#5d5d5d" fill-rule="evenodd"/><path d="M74.56,52.26c0,2.694-.245,5.469-.409,8.162H86.414c.163-1.958.327-3.836.327-5.8H86.9c2.7,4.815,7.277,7.019,12.591,7.019,12.018,0,17.66-11.182,17.66-21.71,0-11.018-6.459-21.709-19.213-21.709a13.87,13.87,0,0,0-10.956,5.957h-.163V1.5H74.56ZM86.823,39.936c0-5.631,2.208-13.548,8.83-13.548,7.849,0,8.83,7.264,8.83,13.548s-.981,13.548-8.83,13.548C89.03,53.484,86.823,45.569,86.823,39.936ZM56.656,24.184h-.163a13.869,13.869,0,0,0-10.956-5.957c-12.754,0-19.213,10.691-19.213,21.709,0,10.528,5.642,21.71,17.659,21.71,5.314,0,9.893-2.2,12.59-7.019h.163c0,1.959.163,3.837.327,5.8H69.328c-.163-2.693-.409-5.468-.409-8.162V1.5H56.656ZM39,39.936c0-6.284.981-13.548,8.83-13.548,6.622,0,8.83,7.917,8.83,13.548s-2.208,13.548-8.83,13.548C39.978,53.484,39,46.221,39,39.936ZM26.9.842a46.48,46.48,0,0,0-6.7-.571C6.867.271,5.8,7.78,6.132,19.451H0v8.161H6.132V60.422H18.395V27.613h7.44V19.451h-7.44c-.327-8.08-.163-12,8.5-11.018Z" transform="translate(0 -0.271)" fill="#003a63" fill-rule="evenodd"/><path d="M129.15,39.249a3.794,3.794,0,1,0-3.8-3.794,3.8,3.8,0,0,0,3.8,3.794" transform="translate(17.901 4.211)" fill="#a49d11" fill-rule="evenodd"/><path d="M120.637,46.751a3.13,3.13,0,1,0-3.136-3.13,3.132,3.132,0,0,0,3.136,3.13" transform="translate(16.781 5.473)" fill="#8177b7" fill-rule="evenodd"/><path d="M120.637,38.5a3.13,3.13,0,1,0-3.136-3.13,3.132,3.132,0,0,0,3.136,3.13" transform="translate(16.781 4.294)" fill="#a49d11" fill-rule="evenodd"/><path d="M113.2,44.8a2.582,2.582,0,1,0-2.587-2.582A2.584,2.584,0,0,0,113.2,44.8" transform="translate(15.797 5.35)" fill="#8177b7" fill-rule="evenodd"/><path d="M113.2,37.886a2.582,2.582,0,1,0-2.587-2.582,2.584,2.584,0,0,0,2.587,2.582" transform="translate(15.797 4.363)" fill="#a49d11" fill-rule="evenodd"/><path d="M106.651,43.121a2.13,2.13,0,1,0-2.134-2.129,2.132,2.132,0,0,0,2.134,2.129" transform="translate(14.926 5.24)" fill="#8177b7" fill-rule="evenodd"/><path d="M106.651,37.377a2.13,2.13,0,1,0-2.134-2.13,2.132,2.132,0,0,0,2.134,2.13" transform="translate(14.926 4.419)" fill="#a49d11" fill-rule="evenodd"/><path d="M87.828,32.515a1.758,1.758,0,1,0-1.761-1.758,1.759,1.759,0,0,0,1.761,1.758" transform="translate(12.292 3.831)" fill="#ce7019" fill-rule="evenodd"/><path d="M87.828,41.4a1.757,1.757,0,1,0-1.761-1.758A1.759,1.759,0,0,0,87.828,41.4" transform="translate(12.292 5.1)" fill="#8177b7" fill-rule="evenodd"/><path d="M87.828,36.957A1.757,1.757,0,1,0,86.068,35.2a1.759,1.759,0,0,0,1.761,1.757" transform="translate(12.292 4.466)" fill="#a49d11" fill-rule="evenodd"/><path d="M82.906,36.957A1.757,1.757,0,1,0,81.146,35.2a1.759,1.759,0,0,0,1.761,1.757" transform="translate(11.589 4.466)" fill="#a49d11" fill-rule="evenodd"/><path d="M82.906,32.515a1.758,1.758,0,1,0-1.761-1.758,1.759,1.759,0,0,0,1.761,1.758" transform="translate(11.589 3.831)" fill="#ce7019" fill-rule="evenodd"/><path d="M82.906,41.4a1.757,1.757,0,1,0-1.761-1.758A1.759,1.759,0,0,0,82.906,41.4" transform="translate(11.589 5.1)" fill="#8177b7" fill-rule="evenodd"/><path d="M120.637,24.065A3.13,3.13,0,1,1,117.5,27.2a3.132,3.132,0,0,1,3.136-3.13" transform="translate(16.781 3.127)" fill="#ce7019" fill-rule="evenodd"/><path d="M113.2,25.881a2.582,2.582,0,1,1-2.587,2.582,2.584,2.584,0,0,1,2.587-2.582" transform="translate(15.797 3.386)" fill="#ce7019" fill-rule="evenodd"/><path d="M106.651,27.445a2.13,2.13,0,1,1-2.134,2.131,2.132,2.132,0,0,1,2.134-2.131" transform="translate(14.926 3.609)" fill="#ce7019" fill-rule="evenodd"/><path d="M79.677,3.176c.071,0,.139,0,.2-.008a.434.434,0,0,0,.17-.047.313.313,0,0,0,.117-.109.366.366,0,0,0,.045-.2.264.264,0,0,0-.048-.167.31.31,0,0,0-.12-.095.489.489,0,0,0-.162-.042c-.059-.006-.117-.008-.173-.008h-.458v.675Zm-.424,1.311h-.38V2.178h.876a1.065,1.065,0,0,1,.632.156.589.589,0,0,1,.212.508.564.564,0,0,1-.173.457.79.79,0,0,1-.43.173l.648,1.015h-.43l-.6-.987h-.357Zm2.011-1.194a1.922,1.922,0,0,0-.122-.7A1.656,1.656,0,0,0,80.8,2.05a1.536,1.536,0,0,0-.508-.354,1.557,1.557,0,0,0-.626-.125,1.6,1.6,0,0,0-.634.125,1.523,1.523,0,0,0-.51.354,1.645,1.645,0,0,0-.342.547,1.922,1.922,0,0,0-.122.7,1.952,1.952,0,0,0,.112.669,1.629,1.629,0,0,0,.321.547,1.521,1.521,0,0,0,.5.371,1.581,1.581,0,0,0,.67.137,1.557,1.557,0,0,0,.626-.125,1.536,1.536,0,0,0,.508-.354,1.673,1.673,0,0,0,.342-.544A1.916,1.916,0,0,0,81.263,3.293Zm.447,0a2.149,2.149,0,0,1-.164.853A2,2,0,0,1,81.1,4.8a2.025,2.025,0,0,1-.653.424,2.058,2.058,0,0,1-.78.151,2.117,2.117,0,0,1-.83-.159,1.952,1.952,0,0,1-.648-.438,2.01,2.01,0,0,1-.424-.661,2.181,2.181,0,0,1-.154-.828,2.151,2.151,0,0,1,.165-.853,1.98,1.98,0,0,1,1.1-1.082,2.094,2.094,0,0,1,.788-.151,2.058,2.058,0,0,1,.78.151,2.025,2.025,0,0,1,.653.424,2,2,0,0,1,.448.658A2.149,2.149,0,0,1,81.71,3.293Z" transform="translate(11.084 -0.138)" fill="#585858" fill-rule="evenodd"/></g></g></g></svg>