<svg xmlns="http://www.w3.org/2000/svg" width="92.379" height="93.687" viewBox="0 0 92.379 93.687">
  <g id="SVGRepo_iconCarrier" transform="translate(-2.195 -2.034)">
    <g id="Product_Icons" data-name="Product Icons" transform="translate(2.195 2.034)">
      <g id="Group_14" data-name="Group 14">
        <path id="Path_23" data-name="Path 23" d="M50.694,50.77V30h0a5.344,5.344,0,1,0-4.688,0V50.723H25.988V37.5a5.33,5.33,0,1,0-4.922,0V50.77H20.034a17.908,17.908,0,1,1,6.563-34.6,24.472,24.472,0,0,1,44.255-.234A18.752,18.752,0,0,1,76.619,15h0a17.955,17.955,0,0,1,0,35.91H75.447V37.5a5.344,5.344,0,1,0-4.969,0V50.77Z" transform="translate(-2.195 -2.034)" fill="#005ca2" fill-rule="evenodd"/>
        <path id="Path_24" data-name="Path 24" d="M16.86,26.307a9.376,9.376,0,0,1,7.22,9.376,9.7,9.7,0,1,1-12.142-9.376V12.43h4.688ZM14.375,40.371a4.688,4.688,0,1,0-4.688-4.688A4.688,4.688,0,0,0,14.375,40.371ZM66.319,26.307a9.7,9.7,0,1,1-4.969,0V12.477h4.969ZM63.834,40.371a4.688,4.688,0,1,0-4.117-2.97A4.688,4.688,0,0,0,63.834,40.371ZM41.566,38.355h0a9.657,9.657,0,1,1-4.688,0V12.571h4.969ZM39.034,52.419a3.118,3.118,0,1,1,0-.094Z" transform="translate(6.933 36.306)" fill="#005ca2" fill-rule="evenodd"/>
      </g>
    </g>
  </g>
</svg>
