<svg xmlns="http://www.w3.org/2000/svg" width="192.756" height="192.756" viewBox="0 0 192.756 192.756">
  <g id="Group_1207" data-name="Group 1207" transform="translate(-143 -143)">
    <path id="Path_1322" data-name="Path 1322" d="M0,0H192.756V192.756H0Z" transform="translate(143 143)" fill="none" fill-rule="evenodd"/>
    <path id="Path_1323" data-name="Path 1323" d="M80.372,101.729s-4.6,2.679,3.28,3.584c9.554,1.091,14.434.934,24.959-1.057a43.443,43.443,0,0,0,6.639,3.236C91.649,117.6,61.837,106.907,80.372,101.729Zm-2.885-13.2s-5.165,3.823,2.726,4.639c10.206,1.054,18.262,1.14,32.211-1.544a14.257,14.257,0,0,0,4.957,3.023C88.85,103,57.074,95.307,77.487,88.532Z" transform="translate(143 143)" fill="#3174b9" fill-rule="evenodd"/>
    <path id="Path_1324" data-name="Path 1324" d="M101.8,66.143c5.818,6.7-1.525,12.72-1.525,12.72s14.766-7.621,7.984-17.168c-6.332-8.9-11.189-13.32,15.1-28.566C123.357,33.128,82.088,43.432,101.8,66.143Z" transform="translate(143 143)" fill="#ca3132" fill-rule="evenodd"/>
    <path id="Path_1325" data-name="Path 1325" d="M133.01,111.491s3.408,2.81-3.754,4.983c-13.619,4.125-56.694,5.369-68.659.164-4.3-1.872,3.766-4.467,6.3-5.015a16.5,16.5,0,0,1,4.156-.468c-4.783-3.368-30.916,6.615-13.272,9.479,48.112,7.8,87.7-3.512,75.226-9.143ZM82.587,74.857s-21.908,5.205-7.757,7.1c5.977.8,17.883.615,28.982-.316,9.068-.761,18.17-2.389,18.17-2.389a38.762,38.762,0,0,0-5.51,2.949c-22.251,5.853-65.229,3.127-52.855-2.856,10.462-5.061,18.97-4.485,18.97-4.485Zm39.3,21.967c22.617-11.75,12.16-23.044,4.859-21.522a17.192,17.192,0,0,0-2.586.695,4.119,4.119,0,0,1,1.932-1.49c14.441-5.075,25.545,14.972-4.656,22.911A2,2,0,0,0,121.891,96.824Z" transform="translate(143 143)" fill="#3174b9" fill-rule="evenodd"/>
    <path id="Path_1326" data-name="Path 1326" d="M108.256,8.5S120.779,21.035,96.375,40.3c-19.571,15.458-4.462,24.269-.006,34.34C84.943,64.331,76.562,55.256,82.184,46.812c8.254-12.4,31.125-18.406,26.072-38.308Z" transform="translate(143 143)" fill="#ca3132" fill-rule="evenodd"/>
    <path id="Path_1327" data-name="Path 1327" d="M84.812,128.674c21.706,1.388,55.045-.771,55.836-11.044,0,0-1.518,3.894-17.941,6.983-18.529,3.488-41.386,3.082-54.938.845C67.769,125.458,70.546,127.756,84.812,128.674Z" transform="translate(143 143)" fill="#3174b9" fill-rule="evenodd"/>
    <path id="Path_1328" data-name="Path 1328" d="M139.645,147.1h-.66v-.37h1.781v.37h-.66v1.848h-.461Zm3.554.092h-.008l-.656,1.755h-.3l-.652-1.755h-.008v1.755h-.438v-2.218h.643l.6,1.569.6-1.569h.637v2.218H143.2v-1.755h0ZM81.255,167.921a9.862,9.862,0,0,1-6.154,2.772c-2.768,0-4.27-1.663-4.27-4.324,0-2.881,1.608-4.989,8.044-4.989h2.379v6.541Zm5.65,6.374V154.563c0-5.043-2.876-8.371-9.809-8.371a25.877,25.877,0,0,0-10.474,2.272l.83,3.495a24.332,24.332,0,0,1,8.089-1.607c3.994,0,5.713,1.607,5.713,4.934v2.495h-2c-9.7,0-14.08,3.764-14.08,9.423,0,4.876,2.885,7.648,8.316,7.648a12.543,12.543,0,0,0,8.534-3.55l.443,2.993Zm18.857,0H98.717l-8.483-27.6h6.154l5.265,16.961,1.172,5.1a106.438,106.438,0,0,0,5.484-22.057h5.984A111.947,111.947,0,0,1,105.762,174.295Zm27.037-6.374a9.889,9.889,0,0,1-6.156,2.772c-2.768,0-4.268-1.663-4.268-4.324,0-2.881,1.609-4.989,8.041-4.989H132.8Zm5.652,6.374V154.563c0-5.043-2.885-8.371-9.811-8.371a25.877,25.877,0,0,0-10.477,2.272l.83,3.495a24.369,24.369,0,0,1,8.1-1.607c3.988,0,5.709,1.607,5.709,4.934v2.495h-2c-9.7,0-14.078,3.764-14.078,9.423,0,4.876,2.879,7.648,8.311,7.648a12.561,12.561,0,0,0,8.539-3.55l.445,2.993Zm-79.468,4.69a14.835,14.835,0,0,1-7.061,5.267l-2.79-3.286a11.724,11.724,0,0,0,4.892-4.582c.745-1.49,1.056-3.406,1.056-7.992V136.877h6.005v31.08C61.085,174.091,60.6,176.57,58.983,178.985Z" transform="translate(143 143)" fill="#ca3132" fill-rule="evenodd"/>
  </g>
</svg>
