<svg xmlns="http://www.w3.org/2000/svg" width="430" height="154" viewBox="0 0 724 569"><g transform="translate(-3246 -1622)"><g transform="translate(3269.506 1649.154)"><g transform="translate(107.614 0)"><path d="M311.749-438.426c-101.713,76.791-98.007,168.989,54.657,138.348,157.94-24.884,268.828-118.214,204.909-181.774C687.778-443.8,560.239-287.177,384.941-253.188c-250.332,49.077-234.01-93.639-73.193-185.238" transform="translate(-178.916 563.274)" fill="#0457a8" fill-rule="evenodd"/><path d="M186.278-280.419C371-224.625,533.113-288.487,633.571-431.729a330.22,330.22,0,0,1-75.9,99.063l45.407,101.1H531.239l-24.4-56.318c-58.767,37.38-119.248,54.218-181.629,48.177l-.676,10.178H249.305l11.522-21.036a279.131,279.131,0,0,1-74.549-29.851" transform="translate(-186.278 614.932)" fill-rule="evenodd"/><path d="M246.018-265.464l73.195-4.75L365.975-382.85l36.6,90.244,55.575-26.464L368.007-521.948Z" transform="translate(-124.707 521.948)" fill="#0457a8" fill-rule="evenodd"/></g><text transform="translate(0 506.403)" fill="#0153a5" font-size="127" font-family="Calibri-Bold, Calibri" font-weight="700"><tspan x="0" y="0">Avi Software</tspan></text></g><rect width="430" height="154" transform="translate(3246 1622)" fill="none"/></g></svg>
