<svg xmlns="http://www.w3.org/2000/svg" width="84.11" height="98.129" viewBox="0 0 84.11 98.129">
  <g id="SVGRepo_iconCarrier" transform="translate(-4 -2)">
    <path id="Path_25" data-name="Path 25" d="M56.569,23.028a3.311,3.311,0,0,0,3.5-3.5V12.514A10.326,10.326,0,0,0,49.56,2H14.514A10.326,10.326,0,0,0,4,12.514v77.1a10.326,10.326,0,0,0,10.514,10.514H49.56A10.326,10.326,0,0,0,60.074,89.615V75.6a3.311,3.311,0,0,0-3.5-3.5H11.009V23.028ZM28.532,82.606h7.009a3.5,3.5,0,0,1,0,7.009H28.532a3.5,3.5,0,1,1,0-7.009Z" fill="#005ca2"/>
    <g id="Group_15" data-name="Group 15" transform="translate(25.028 33.541)">
      <path id="Path_26" data-name="Path 26" d="M24.018,39.037a3.182,3.182,0,0,1-2.453-1.051L11.051,27.472a3.388,3.388,0,0,1,0-4.906L21.565,12.051a3.469,3.469,0,1,1,4.906,4.906l-8.061,8.061,8.061,8.061a3.388,3.388,0,0,1,0,4.906A3.182,3.182,0,0,1,24.018,39.037Z" transform="translate(-10 -11)" fill="#005ca2"/>
    </g>
    <g id="Group_16" data-name="Group 16" transform="translate(70.587 33.541)">
      <path id="Path_27" data-name="Path 27" d="M26.5,39.037a3.182,3.182,0,0,1-2.453-1.051,3.388,3.388,0,0,1,0-4.906l8.061-8.061-8.061-8.061a3.469,3.469,0,0,1,4.906-4.906L39.472,22.565a3.388,3.388,0,0,1,0,4.906L28.958,37.985A3.182,3.182,0,0,1,26.5,39.037Z" transform="translate(-23 -11)" fill="#005ca2"/>
    </g>
    <g id="Group_17" data-name="Group 17" transform="translate(46.262 30.244)">
      <path id="Path_28" data-name="Path 28" d="M19.357,44.9a2.107,2.107,0,0,1-1.4-.35,3.093,3.093,0,0,1-1.4-4.556L30.571,11.955a3.093,3.093,0,0,1,4.556-1.4,3.093,3.093,0,0,1,1.4,4.556L22.511,43.146A3.68,3.68,0,0,1,19.357,44.9Z" transform="translate(-16.059 -10.059)" fill="#005ca2"/>
    </g>
  </g>
</svg>
