<svg xmlns="http://www.w3.org/2000/svg" width="135.938" height="93.74" viewBox="0 0 135.938 93.74">
  <g id="Group_38" data-name="Group 38" transform="translate(-984.079 -617.95)">
    <g id="Group_33" data-name="Group 33" transform="translate(272 -303)">
      <g id="Path_87" data-name="Path 87" transform="translate(803.274 975.332)" fill="#005ca2">
        <path d="M 33.72183990478516 24.74096298217773 L 4.639970302581787 24.74096298217773 C 3.331680536270142 24.74096298217773 2.865530490875244 23.62675285339355 2.865530490875244 22.58402252197266 L 2.865530490875244 22.55445289611816 L 2.862040519714355 22.52508354187012 L 0.500181257724762 2.628926038742065 C 0.5153765678405762 1.452460527420044 1.485022068023682 0.5000033974647522 2.674740552902222 0.5000033974647522 L 36.10892868041992 0.5000033974647522 C 37.29739379882812 0.5000033974647522 38.26625442504883 1.450463056564331 38.28342819213867 2.625229358673096 L 35.61336898803711 22.51750373840332 L 35.60892868041992 22.55061340332031 L 35.60892868041992 22.58402252197266 C 35.60892868041992 23.19508361816406 35.42454147338867 23.74674415588379 35.0897102355957 24.13737297058105 C 34.75125122070312 24.5322437286377 34.27825164794922 24.74096298217773 33.72183990478516 24.74096298217773 Z" stroke="none"/>
        <path d="M 2.674732208251953 1.000003814697266 C 1.7689208984375 1.000003814697266 1.028770446777344 1.71510124206543 1.000820159912109 2.604698181152344 L 3.365531921386719 22.52487373352051 L 3.365531921386719 22.58402252197266 C 3.365531921386719 22.97272300720215 3.457431793212891 24.24096298217773 4.639968872070312 24.24096298217773 L 33.72183990478516 24.24096298217773 C 34.74565124511719 24.24096298217773 35.10892105102539 23.3483829498291 35.10892105102539 22.58402252197266 L 35.10892105102539 22.51721382141113 L 37.78261184692383 2.59794807434082 C 37.75111389160156 1.711511611938477 37.01241683959961 1.000003814697266 36.10892105102539 1.000003814697266 L 2.674732208251953 1.000003814697266 M 2.674732208251953 3.814697265625e-06 L 36.10892105102539 3.814697265625e-06 C 37.58613967895508 3.814697265625e-06 38.78366088867188 1.189554214477539 38.78366088867188 2.656944274902344 L 36.10892105102539 22.58402252197266 C 36.10892105102539 24.05141258239746 35.19905853271484 25.24096298217773 33.72183990478516 25.24096298217773 L 4.639968872070312 25.24096298217773 C 3.162761688232422 25.24096298217773 2.365531921386719 24.05141258239746 2.365531921386719 22.58402252197266 L 0 2.656944274902344 C 0 1.189554214477539 1.197521209716797 3.814697265625e-06 2.674732208251953 3.814697265625e-06 Z" stroke="none" fill="#f6f6f6"/>
      </g>
      <g id="Path_88" data-name="Path 88" transform="translate(716.264 975.985)" fill="#005ca2">
        <path d="M 33.72183990478516 24.99096298217773 L 4.639970302581787 24.99096298217773 C 3.145720481872559 24.99096298217773 2.615530490875244 23.69436264038086 2.615530490875244 22.58402252197266 L 2.615530490875244 22.56923294067383 L 2.613790512084961 22.5545539855957 L 0.2500440776348114 2.64249849319458 C 0.257839024066925 1.321874380111694 1.34254515171051 0.2500033974647522 2.674740552902222 0.2500033974647522 L 36.10892868041992 0.2500033974647522 C 37.44046401977539 0.2500033974647522 38.52475738525391 1.320901393890381 38.53360366821289 2.640634775161743 L 35.86114883422852 22.5507640838623 L 35.85892868041992 22.56732368469238 L 35.85892868041992 22.58402252197266 C 35.85892868041992 24.00119400024414 34.98012924194336 24.99096298217773 33.72183990478516 24.99096298217773 Z" stroke="none"/>
        <path d="M 2.674732208251953 0.5000038146972656 C 1.485023498535156 0.5000038146972656 0.5153770446777344 1.452461242675781 0.50018310546875 2.628925323486328 L 2.865531921386719 22.55445289611816 L 2.865531921386719 22.58402252197266 C 2.865531921386719 23.62675285339355 3.331680297851562 24.74096298217773 4.639968872070312 24.74096298217773 L 33.72183990478516 24.74096298217773 C 34.27825164794922 24.74096298217773 34.75125122070312 24.5322437286377 35.0897102355957 24.13737297058105 C 35.42453002929688 23.74674415588379 35.60892105102539 23.19508361816406 35.60892105102539 22.58402252197266 L 35.60892105102539 22.55061340332031 L 38.28342819213867 2.625228881835938 C 38.26625442504883 1.450462341308594 37.29739379882812 0.5000038146972656 36.10892105102539 0.5000038146972656 L 2.674732208251953 0.5000038146972656 M 2.674732208251953 3.814697265625e-06 L 36.10892105102539 3.814697265625e-06 C 37.58613967895508 3.814697265625e-06 38.78366088867188 1.189554214477539 38.78366088867188 2.656944274902344 L 36.10892105102539 22.58402252197266 C 36.10892105102539 24.05141258239746 35.19905853271484 25.24096298217773 33.72183990478516 25.24096298217773 L 4.639968872070312 25.24096298217773 C 3.162761688232422 25.24096298217773 2.365531921386719 24.05141258239746 2.365531921386719 22.58402252197266 L 0 2.656944274902344 C 0 1.189554214477539 1.197521209716797 3.814697265625e-06 2.674732208251953 3.814697265625e-06 Z" stroke="none" fill="#bebebe"/>
      </g>
      <g id="Path_86" data-name="Path 86" transform="translate(748.727 971.866)" fill="#005ca2">
        <path d="M 54.13525772094727 40.02050399780273 L 7.448767185211182 40.02050399780273 C 5.122807025909424 40.02050399780273 4.297507286071777 37.99215316772461 4.297507286071777 36.25519561767578 L 4.297507286071777 36.22562408447266 L 4.294017314910889 36.19625473022461 L 0.5001060962677002 4.236690998077393 C 0.5155889987945557 2.173549890518188 2.211503267288208 0.5000039339065552 4.293877124786377 0.5000039339065552 L 57.96735763549805 0.5000039339065552 C 60.04845428466797 0.5000039339065552 61.74356460571289 2.171512842178345 61.7610969543457 4.232911109924316 L 57.47179794311523 36.18867492675781 L 57.46735763549805 36.22178268432617 L 57.46735763549805 36.25519561767578 C 57.46735763549805 37.30836486816406 57.14546585083008 38.26391220092773 56.56096649169922 38.94583511352539 C 55.95835876464844 39.64888381958008 55.11955642700195 40.02050399780273 54.13525772094727 40.02050399780273 Z" stroke="none"/>
        <path d="M 4.293876647949219 1.000003814697266 C 2.496250152587891 1.000003814697266 1.03033447265625 2.434963226318359 1.000461578369141 4.210067749023438 L 4.797508239746094 36.196044921875 L 4.797508239746094 36.25519561767578 C 4.797508239746094 37.83374404907227 5.493995666503906 39.52050399780273 7.448768615722656 39.52050399780273 L 54.13525772094727 39.52050399780273 C 56.09164810180664 39.52050399780273 56.96735763549805 37.88051223754883 56.96735763549805 36.25519561767578 L 56.96735763549805 36.18838500976562 L 61.26064300537109 4.202930450439453 C 61.22692108154297 2.431156158447266 59.76254272460938 1.000003814697266 57.96735763549805 1.000003814697266 L 4.293876647949219 1.000003814697266 M 4.293876647949219 3.814697265625e-06 L 57.96735763549805 3.814697265625e-06 C 60.33879852294922 3.814697265625e-06 62.26123809814453 1.909645080566406 62.26123809814453 4.265312194824219 L 57.96735763549805 36.25519561767578 C 57.96735763549805 38.61086273193359 56.50669860839844 40.52050399780273 54.13525772094727 40.52050399780273 L 7.448768615722656 40.52050399780273 C 5.077327728271484 40.52050399780273 3.797508239746094 38.61086273193359 3.797508239746094 36.25519561767578 L -3.814697265625e-06 4.265312194824219 C -3.814697265625e-06 1.909645080566406 1.922435760498047 3.814697265625e-06 4.293876647949219 3.814697265625e-06 Z" stroke="none" fill="#f5f5f5"/>
      </g>
      <g id="Group_32" data-name="Group 32" transform="translate(717.385 935.925)">
        <g id="Group_31" data-name="Group 31" transform="translate(0 0)">
          <path id="Path_38" data-name="Path 38" d="M13.959,48.5c.006.117.015.235.023.351.638,8.914,4.85,15.8,9.953,15.8,5.169,0,9.426-7.065,9.977-16.147a17.307,17.307,0,0,0,.117-2,16.95,16.95,0,0,0-.117-2c-.739-6.312-4.925-11.15-9.977-11.15S14.7,38.2,13.959,44.51a17.276,17.276,0,0,0-.115,2c0,.276.008.549.021.821C13.883,47.721,13.914,48.114,13.959,48.5Zm3.751-7.09s6.976,4.2,11.665,0c0,0,2.783,5.451,2,7.6l1.416-2.014a15.319,15.319,0,0,1-.1,1.577c-.483,7.973-4.22,14.174-8.76,14.174-4.465,0-8.154-6-8.732-13.789a3.917,3.917,0,0,1,1.4.812S15.607,42.438,17.711,41.412Z" transform="translate(-4.679 -33.356)" fill="#005ca2"/>
          <path id="Path_39" data-name="Path 39" d="M23.958,59.872c-2.18-3.961-4.869-9.2-4.9-10.964-5.251.592-9.6,5-11.252,10.964Z" transform="translate(-7.807 -19.685)" fill="#005ca2"/>
          <path id="Path_40" data-name="Path 40" d="M22.668,58.215l-.244-4.341a3.807,3.807,0,0,0,1.644-3.082,6.709,6.709,0,0,1-2.784.754,6.7,6.7,0,0,1-2.784-.754,3.812,3.812,0,0,0,1.644,3.082L19.9,58.215h2.769Z" transform="translate(-2.267 -18.028)" fill="#005ca2"/>
          <path id="Path_41" data-name="Path 41" d="M36.845,55.273h.03A12.812,12.812,0,0,0,27.6,48.907c-.032,1.768-2.979,7-5.367,10.966H33.044C33.115,57.3,34.786,55.273,36.845,55.273Z" transform="translate(-0.334 -19.686)" fill="#005ca2"/>
        </g>
      </g>
      <path id="Path_52" data-name="Path 52" d="M65.293,52.013c-.027-.1-.053-.179-.079-.274.024.094.052.177.079.274Z" transform="translate(737.93 920.609)" fill="none"/>
      <path id="Path_53" data-name="Path 53" d="M90.065,43.344l-.85,1.013L78.762,37.7c-3.42-.393-3.964,5.26-4,5.763,0,.023,0,.036,0,.036a.4.4,0,0,0-.363-.152.327.327,0,0,0-.146.079,3.372,3.372,0,0,0-.293,2.48,4.472,4.472,0,0,0,.688,1.981c.146.18.3.271.44.239a.348.348,0,0,0,.19-.122,15.316,15.316,0,0,0,3.7,6.949,4.236,4.236,0,0,0,6.505.015A15.312,15.312,0,0,0,89.186,48a.355.355,0,0,0,.188.122.415.415,0,0,0,.38-.167A4.126,4.126,0,0,0,90.5,45.9c.181-1.229.021-2.306-.352-2.522A.283.283,0,0,0,90.065,43.344Z" transform="translate(742.418 908.248)" fill="none"/>
      <path id="Path_54" data-name="Path 54" d="M53,52.622a10.562,10.562,0,0,0,8.233-4.47,2.764,2.764,0,0,0,.442-1.231.14.14,0,0,0,0-.036,3.73,3.73,0,0,1-2.241-3.307c-.009,0-.015-.009-.024-.013A11.2,11.2,0,0,1,55.8,46.6a5.955,5.955,0,0,1-5.5,0,11.314,11.314,0,0,1-3.645-3.07h0a3.593,3.593,0,0,1-1.728,3.07c-.083.056-.161.1-.232.143a3.887,3.887,0,0,1-.366.18,2.77,2.77,0,0,0,.443,1.229A10.567,10.567,0,0,0,53,52.622Z" transform="translate(727.106 913.392)" fill="none"/>
      <path id="Path_55" data-name="Path 55" d="M86.658,47.282a.066.066,0,0,0-.015-.009,8.756,8.756,0,0,1-2.813,2.36,4.841,4.841,0,0,1-2.138.524,4.79,4.79,0,0,1-2.136-.524,8.737,8.737,0,0,1-2.837-2.388,2.8,2.8,0,0,1-1.345,2.388c-.065.043-.126.079-.182.111a2.546,2.546,0,0,1-.284.139,2.213,2.213,0,0,0,.342.958,7.637,7.637,0,0,0,12.809,0,2.2,2.2,0,0,0,.343-.958.088.088,0,0,0,0-.028A2.906,2.906,0,0,1,86.658,47.282Z" transform="translate(742.953 916.658)" fill="none"/>
      <path id="Path_56" data-name="Path 56" d="M43.982,44.35c.187.233.38.348.565.308a.455.455,0,0,0,.244-.158,19.725,19.725,0,0,0,4.75,8.933,6.147,6.147,0,0,0,4.2,1.967,6.137,6.137,0,0,0,4.172-1.945A19.678,19.678,0,0,0,62.684,44.5a.468.468,0,0,0,.243.158.545.545,0,0,0,.489-.216,5.292,5.292,0,0,0,.964-2.636c.228-1.58.024-2.967-.455-3.243a.425.425,0,0,0-.109-.045l-1.092,1.3L49.281,31.255c-4.4-.5-5.093,6.763-5.148,7.411,0,.028,0,.045,0,.045h0a.524.524,0,0,0-.468-.2.428.428,0,0,0-.187.1c-.427.378-.6,1.695-.378,3.189A5.666,5.666,0,0,0,43.982,44.35Z" transform="translate(726.421 902.58)" fill="none"/>
      <path id="Path_57" data-name="Path 57" d="M28.205,47.282a.167.167,0,0,0-.017-.009,8.735,8.735,0,0,1-2.812,2.36,4.62,4.62,0,0,1-4.275,0,8.764,8.764,0,0,1-2.836-2.388,2.8,2.8,0,0,1-1.344,2.388c-.067.043-.126.079-.182.111a2.523,2.523,0,0,1-.285.139,2.215,2.215,0,0,0,.343.958,8.212,8.212,0,0,0,6.4,3.476,8.216,8.216,0,0,0,6.4-3.476,2.161,2.161,0,0,0,.345-.958v-.028A2.906,2.906,0,0,1,28.205,47.282Z" transform="translate(712.666 916.658)" fill="none"/>
      <path id="Path_58" data-name="Path 58" d="M31.612,43.344l-.85,1.013L20.309,37.7c-3.419-.393-3.962,5.26-4,5.763a.3.3,0,0,0,0,.036h0a.4.4,0,0,0-.363-.152.327.327,0,0,0-.146.079A3.387,3.387,0,0,0,15.5,45.9a4.433,4.433,0,0,0,.689,1.981c.146.18.295.271.44.239A.349.349,0,0,0,16.817,48a15.343,15.343,0,0,0,3.7,6.949,4.792,4.792,0,0,0,3.264,1.53,4.769,4.769,0,0,0,3.244-1.515A15.325,15.325,0,0,0,30.733,48a.348.348,0,0,0,.19.122.416.416,0,0,0,.38-.167,4.14,4.14,0,0,0,.75-2.052c.179-1.229.02-2.306-.354-2.522A.3.3,0,0,0,31.612,43.344Z" transform="translate(712.132 908.248)" fill="none"/>
      <path id="Path_59" data-name="Path 59" d="M67.906,85.448h34.961c1.442,0,2.622-1.456,2.62-3.245l3.5-25.133c0-1.755-1.178-3.211-2.625-3.211h-34.8a5.965,5.965,0,0,1,.061.744l-4.281,30.76A2.134,2.134,0,0,0,67.906,85.448ZM85.388,67.666a1.591,1.591,0,1,1-1.257,1.556A1.431,1.431,0,0,1,85.388,67.666Z" transform="translate(739.03 922.473)" fill="none"/>
      <path id="Path_60" data-name="Path 60" d="M42.285,53.859H7.851c-1.447,0-2.622,1.456-2.622,3.245L8.722,82.165c0,1.826,1.18,3.283,2.625,3.283h34.96a1.864,1.864,0,0,0,.2-.026l-4.29-30.774A6.117,6.117,0,0,1,42.285,53.859ZM28.827,70.778a1.591,1.591,0,0,1,0-3.112,1.591,1.591,0,0,1,0,3.112Z" transform="translate(706.85 922.473)" fill="none"/>
      <path id="Path_61" data-name="Path 61" d="M87.2,52.035H33.262c-1.86,0-3.372,1.872-3.372,4.173l4.492,32.218c0,2.349,1.515,4.22,3.375,4.22H82.709c1.857,0,3.369-1.872,3.369-4.173l4.5-32.314C90.571,53.907,89.059,52.035,87.2,52.035ZM60.231,73.783a2.043,2.043,0,1,1,1.614-2A1.838,1.838,0,0,1,60.231,73.783Z" transform="translate(719.627 920.87)" fill="none"/>
      <ellipse id="Ellipse_4" data-name="Ellipse 4" cx="1.257" cy="1.556" rx="1.257" ry="1.556" transform="translate(732.699 988.112)" fill="#d9e2e8"/>
      <path id="Path_64" data-name="Path 64" d="M103,72.33c-2.1-8.144-5.742-8.454-6.545-8.685-.1-.028-.191-.053-.287-.077-2.5-2.856-.792-14.779-.792-14.779,0-18.174-9.932-16.385-9.932-16.385-.121-.008-.24-.013-.358-.019s-.24.011-.36.019c0,0-9.932-1.789-9.932,16.385,0,0,1.7,11.923-.791,14.779-.1.023-.194.049-.29.077-.668.2-3.332.451-5.417,5.312a4.438,4.438,0,0,1,2.749,3.587h32.017C103.041,72.469,103.019,72.405,103,72.33Zm-11.17-9.36a2.2,2.2,0,0,1-.343.958,7.637,7.637,0,0,1-12.809,0,2.232,2.232,0,0,1-.342-.958,2.687,2.687,0,0,0,.284-.139c.056-.032.117-.068.182-.111a2.8,2.8,0,0,0,1.345-2.388,8.737,8.737,0,0,0,2.837,2.388,4.79,4.79,0,0,0,2.136.524,4.841,4.841,0,0,0,2.138-.524,8.756,8.756,0,0,0,2.813-2.36.066.066,0,0,1,.015.009,2.906,2.906,0,0,0,1.741,2.572A.059.059,0,0,1,91.828,62.97ZM93.4,50.58a4.126,4.126,0,0,1-.75,2.052.415.415,0,0,1-.38.167.355.355,0,0,1-.188-.122,15.312,15.312,0,0,1-3.713,6.966,4.236,4.236,0,0,1-6.505-.015,15.316,15.316,0,0,1-3.7-6.949.348.348,0,0,1-.19.122c-.144.032-.295-.058-.44-.239a4.472,4.472,0,0,1-.688-1.981,3.387,3.387,0,0,1,.293-2.48.32.32,0,0,1,.146-.079.4.4,0,0,1,.363.152s0-.013,0-.036c.039-.5.584-6.156,4-5.763l10.452,6.659.85-1.013a.307.307,0,0,1,.088.036C93.419,48.274,93.578,49.351,93.4,50.58Z" transform="translate(737.585 903.57)" fill="#005ca2"/>
      <path id="Path_65" data-name="Path 65" d="M82.73,74.43H33.352a1.2,1.2,0,0,0,0,2.3H82.727c.482,0,.87-.514.87-1.152S83.211,74.43,82.73,74.43Z" transform="translate(721.619 937.957)" fill="#005ca2"/>
      <path id="Path_89" data-name="Path 89" d="M64.235,74.43h-31.2c-.3,0-.551.35-.551.778s.247.778.551.778h31.2c.3,0,.55-.347.55-.778S64.539,74.43,64.235,74.43Z" transform="translate(773.399 926.143)" fill="#005ca2"/>
      <path id="Path_90" data-name="Path 90" d="M64.235,74.43h-31.2c-.3,0-.551.35-.551.778s.247.778.551.778h31.2c.3,0,.55-.347.55-.778S64.539,74.43,64.235,74.43Z" transform="translate(687.024 927.24)" fill="#005ca2"/>
      <ellipse id="Ellipse_6" data-name="Ellipse 6" cx="1.614" cy="1.997" rx="1.614" ry="1.997" transform="translate(778.245 990.658)" fill="#005ca2"/>
      <path id="Path_66" data-name="Path 66" d="M81.045,76.061s0,0,0,0c-.026-.1-.052-.18-.077-.274-2.7-10.468-7.384-10.867-8.413-11.165-.124-.036-.247-.068-.373-.1-3.208-3.672-1.019-19-1.019-19C71.161,22.15,58.39,24.45,58.39,24.45c-.155-.009-.31-.017-.463-.023s-.307.013-.463.023c0,0-12.769-2.3-12.769,21.066,0,0,2.191,15.329-1.019,19-.128.03-.25.062-.373.1-1.029.3-5.71.7-8.413,11.165-.026.1-.053.182-.077.278ZM49.254,63.749a3.881,3.881,0,0,0,.366-.18c.071-.041.149-.086.232-.143a3.593,3.593,0,0,0,1.728-3.07h0a11.314,11.314,0,0,0,3.645,3.07,5.955,5.955,0,0,0,5.5,0,11.215,11.215,0,0,0,3.615-3.035c.009,0,.015.009.024.013A3.73,3.73,0,0,0,66.6,63.711a.141.141,0,0,1,0,.036,2.764,2.764,0,0,1-.442,1.231,10.56,10.56,0,0,1-8.233,4.47,10.562,10.562,0,0,1-8.231-4.47A2.754,2.754,0,0,1,49.254,63.749ZM47.716,44.631a.428.428,0,0,1,.187-.1.524.524,0,0,1,.468.2h0s0-.017,0-.045c.055-.648.751-7.915,5.148-7.411l13.442,8.565,1.092-1.3a.426.426,0,0,1,.109.045c.478.276.683,1.663.455,3.243a5.292,5.292,0,0,1-.964,2.636.545.545,0,0,1-.489.216.463.463,0,0,1-.243-.158,19.678,19.678,0,0,1-4.775,8.956,6.134,6.134,0,0,1-4.172,1.945,6.147,6.147,0,0,1-4.2-1.967,19.725,19.725,0,0,1-4.75-8.933.455.455,0,0,1-.244.158c-.185.039-.378-.075-.565-.308a5.683,5.683,0,0,1-.887-2.544C47.12,46.326,47.29,45.009,47.716,44.631Z" transform="translate(722.229 896.562)" fill="#005ca2"/>
      <ellipse id="Ellipse_5" data-name="Ellipse 5" cx="1.257" cy="1.556" rx="1.257" ry="1.556" transform="translate(821.409 986.396)" fill="#d5dde4"/>
      <ellipse id="Ellipse_7" data-name="Ellipse 7" cx="1.257" cy="1.556" rx="1.257" ry="1.556" transform="translate(778.2 990.658)" fill="#d5dde4"/>
    </g>
  </g>
</svg>
