<svg xmlns="http://www.w3.org/2000/svg" width="101.604" height="101.604" viewBox="0 0 101.604 101.604">
  <g id="Group_35" data-name="Group 35" transform="translate(-849.9 -788.954)">
    <path id="Path_67" data-name="Path 67" d="M6.382,53.022A4.72,4.72,0,0,1,6.4,51.863L6.6,50.371,9.573,29.621a4.794,4.794,0,0,1,4.715-4.1H40.451A14.326,14.326,0,0,0,26.989,16h-12.7A14.31,14.31,0,0,0,0,30.288v12.7A11.077,11.077,0,0,0,6.383,53.022Z" transform="translate(849.9 798.355)" fill="#005ca2"/>
    <path id="Path_68" data-name="Path 68" d="M16.525,22.226A9.525,9.525,0,0,0,26.051,12.7V9.525A9.525,9.525,0,1,0,7,9.525V12.7a9.525,9.525,0,0,0,9.525,9.525Z" transform="translate(854.013 788.954)" fill="#005ca2"/>
    <path id="Path_69" data-name="Path 69" d="M44.086,48.036,47.261,25.81a1.6,1.6,0,0,0-.365-1.27A1.646,1.646,0,0,0,45.69,24H10.763a1.588,1.588,0,0,0-1.572,1.365L6.016,47.591a1.6,1.6,0,0,0,.365,1.27,1.646,1.646,0,0,0,1.207.54H42.514a1.587,1.587,0,0,0,1.572-1.365ZM31.4,38.288H28.226v3.175a1.588,1.588,0,0,1-3.175,0V38.288H21.876a1.588,1.588,0,0,1,0-3.175h3.175V31.938a1.588,1.588,0,0,1,3.175,0v3.175H31.4a1.588,1.588,0,1,1,0,3.175Z" transform="translate(853.425 803.055)" fill="#005ca2"/>
    <path id="Path_70" data-name="Path 70" d="M64.683,40h-12.7A14.326,14.326,0,0,0,38.52,49.525H64.683a4.794,4.794,0,0,1,4.715,4.1l2.969,20.734.206,1.492a4.86,4.86,0,0,1,.016,1.175,11.076,11.076,0,0,0,6.382-10.033v-12.7A14.31,14.31,0,0,0,64.683,40Z" transform="translate(872.533 812.456)" fill="#005ca2"/>
    <path id="Path_71" data-name="Path 71" d="M68.514,48H33.588a1.646,1.646,0,0,0-1.207.54,1.6,1.6,0,0,0-.365,1.27l3.175,22.226A1.588,1.588,0,0,0,36.763,73.4H71.69a1.646,1.646,0,0,0,1.207-.54,1.6,1.6,0,0,0,.365-1.27L70.086,49.365A1.588,1.588,0,0,0,68.514,48Z" transform="translate(868.701 817.157)" fill="#005ca2"/>
    <path id="Path_72" data-name="Path 72" d="M45,33.525V36.7a9.525,9.525,0,0,0,19.051,0V33.525a9.525,9.525,0,0,0-19.051,0Z" transform="translate(876.34 803.055)" fill="#005ca2"/>
    <path id="Path_73" data-name="Path 73" d="M11.824,42.53a1.619,1.619,0,0,0-.635,2.175,38.758,38.758,0,0,0,3.629,5.571,1.556,1.556,0,0,0,2.216.257,1.622,1.622,0,0,0,.251-2.254,35.317,35.317,0,0,1-3.326-5.1,1.564,1.564,0,0,0-2.135-.645Z" transform="translate(856.362 813.83)" fill="#005ca2"/>
    <path id="Path_74" data-name="Path 74" d="M18.538,49.028a1.557,1.557,0,0,0-2.223.138,1.622,1.622,0,0,0,.135,2.262,37.961,37.961,0,0,0,5.272,3.983,1.551,1.551,0,0,0,.822.238,1.57,1.57,0,0,0,1.345-.764,1.622,1.622,0,0,0-.518-2.207,34.645,34.645,0,0,1-4.834-3.651Z" transform="translate(859.254 817.525)" fill="#005ca2"/>
    <path id="Path_75" data-name="Path 75" d="M24.8,52.941a1.569,1.569,0,0,0-2.043.9,1.61,1.61,0,0,0,.886,2.08,36.942,36.942,0,0,0,6.295,1.905,1.535,1.535,0,0,0,.318.032,1.6,1.6,0,0,0,.314-3.172A33.99,33.99,0,0,1,24.8,52.941Z" transform="translate(863.203 819.995)" fill="#005ca2"/>
    <path id="Path_76" data-name="Path 76" d="M52.515,24.348a1.569,1.569,0,0,0,1.38.827,1.54,1.54,0,0,0,.76-.2,1.619,1.619,0,0,0,.616-2.178,38.6,38.6,0,0,0-3.664-5.545,1.557,1.557,0,0,0-2.223-.241,1.624,1.624,0,0,0-.237,2.254A35.607,35.607,0,0,1,52.515,24.348Z" transform="translate(878.572 798.738)" fill="#005ca2"/>
    <path id="Path_77" data-name="Path 77" d="M29.183,11.623a1.517,1.517,0,0,0,.238-.017,34.523,34.523,0,0,1,6.007-.391A1.6,1.6,0,0,0,35.5,8.01a37.489,37.489,0,0,0-6.55.425,1.605,1.605,0,0,0,.233,3.188Z" transform="translate(866.122 793.654)" fill="#005ca2"/>
    <path id="Path_78" data-name="Path 78" d="M36.77,11.619a33.95,33.95,0,0,1,5.777,1.713,1.54,1.54,0,0,0,.57.11,1.576,1.576,0,0,0,1.47-1.022,1.616,1.616,0,0,0-.9-2.077,37.257,37.257,0,0,0-6.307-1.869,1.573,1.573,0,0,0-1.851,1.261A1.6,1.6,0,0,0,36.77,11.619Z" transform="translate(870.758 793.915)" fill="#005ca2"/>
    <path id="Path_79" data-name="Path 79" d="M21.705,15a1.537,1.537,0,0,0,.756-.2,33.959,33.959,0,0,1,5.505-2.464,1.608,1.608,0,0,0,.987-2.032,1.565,1.565,0,0,0-2-1,37.058,37.058,0,0,0-6.014,2.691,1.618,1.618,0,0,0-.622,2.177A1.573,1.573,0,0,0,21.705,15Z" transform="translate(861.726 794.368)" fill="#005ca2"/>
    <path id="Path_80" data-name="Path 80" d="M43.62,14.333a34.926,34.926,0,0,1,4.861,3.623A1.556,1.556,0,0,0,50.7,17.8a1.624,1.624,0,0,0-.148-2.262,37.985,37.985,0,0,0-5.3-3.95,1.562,1.562,0,0,0-2.164.54,1.619,1.619,0,0,0,.53,2.208Z" transform="translate(875.082 795.625)" fill="#005ca2"/>
    <rect id="Rectangle_25" data-name="Rectangle 25" width="22" height="18" transform="translate(869 830)" fill="#005ca2"/>
    <path id="Path_85" data-name="Path 85" d="M50.54,61.65V58.46h-1.8a6.959,6.959,0,0,0-1.04-2.427l1.248-1.248L46.657,52.5l-1.179,1.248A8.287,8.287,0,0,0,43.05,52.7V50.9H39.86v1.8a6.959,6.959,0,0,0-2.427,1.04L36.184,52.5,33.9,54.784l1.248,1.248A8.287,8.287,0,0,0,34.1,58.46H32.3v3.19h1.8a6.959,6.959,0,0,0,1.04,2.427L33.9,65.326l2.289,2.289,1.248-1.248a8.287,8.287,0,0,0,2.427,1.04v1.8h3.19v-1.8a6.96,6.96,0,0,0,2.427-1.04l1.248,1.248,2.289-2.289-1.248-1.179a8.287,8.287,0,0,0,1.04-2.427H50.54Zm-9.155,2.844a4.439,4.439,0,1,1,4.439-4.439A4.425,4.425,0,0,1,41.386,64.494Z" transform="translate(836.809 780.071)" fill="#fff"/>
  </g>
</svg>
