<svg xmlns="http://www.w3.org/2000/svg" width="108.137" height="82.724" viewBox="0 0 108.137 82.724">
  <g id="SVGRepo_iconCarrier" transform="translate(-0.95 -5)">
    <g id="Group_22" data-name="Group 22" transform="translate(0.95 69.741)">
      <path id="Path_81" data-name="Path 81" d="M105.434,40.984H4.727a4.292,4.292,0,0,1-3.237-1.8,3.267,3.267,0,0,1,0-3.6L8.683,24.8A3.777,3.777,0,0,1,11.92,23H98.241a3.456,3.456,0,0,1,3.237,2.158l7.193,10.79c.719,1.079.36,2.518,0,3.6A5.357,5.357,0,0,1,105.434,40.984Z" transform="translate(-0.95 -23)" fill="#005ca2"/>
    </g>
    <path id="Path_82" data-name="Path 82" d="M86.724,5H7.6A3.4,3.4,0,0,0,4,8.6V58.951a3.4,3.4,0,0,0,3.6,3.6H86.724a3.4,3.4,0,0,0,3.6-3.6V8.6A3.4,3.4,0,0,0,86.724,5ZM31.695,42.046a3.477,3.477,0,0,1,0,5.035,3.477,3.477,0,0,1-5.035,0l-10.79-10.79a3.477,3.477,0,0,1,0-5.035l10.79-10.79A3.561,3.561,0,0,1,31.695,25.5l-8.272,8.272Zm25.9-21.221L43.2,49.6a3.456,3.456,0,0,1-3.237,2.158c-.719,0-1.079,0-1.439-.36a3.174,3.174,0,0,1-1.439-4.676L51.477,17.948a3.174,3.174,0,0,1,4.676-1.439A3.46,3.46,0,0,1,57.591,20.826ZM78.452,36.291l-10.79,10.79a3.477,3.477,0,0,1-5.035,0,3.477,3.477,0,0,1,0-5.035L70.9,33.774,62.626,25.5a3.561,3.561,0,0,1,5.035-5.035l10.79,10.79A3.477,3.477,0,0,1,78.452,36.291Z" transform="translate(7.92 0)" fill="#005ca2"/>
  </g>
</svg>
